<svg xmlns="http://www.w3.org/2000/svg" viewBox="0 0 393.53 213.68"><title>picto-carte-du-monde</title><g id="Calque_2" data-name="Calque 2"><g id="Calque_1-2" data-name="Calque 1"><path d="M189.31,146.36c-1.7-.18-3.4-.47-5.1-.5-2.07,0-4.13.38-5.5-1.91-.35-.58-1.69-.6-2.59-.81-4-.91-8.11-1.62-12-2.8a4.84,4.84,0,0,1-2.73-3.12c-1.61-7.67-3.79-15.31-1.87-23.32.6-2.48,1.57-4.4,4.05-5.23a7.6,7.6,0,0,0,4.74-4.45,37.25,37.25,0,0,1,3.19-4.82A20,20,0,0,1,169,97.51c-3.26-3.35-2.16-8.15,2.22-9.59,1.93-.63,4-1,6.37-1.57-.89-2-1.56-4.34-2.91-6.18-.83-1.14-1.09-1.86-.38-2.9,1.39-2,1.06-3.71-.36-5.67-.81-1.11-.8-2.84-1-4.32,0-.18,1.18-.82,1.35-.68a29.16,29.16,0,0,1,3.37,3.25,11,11,0,0,1,1.21,2.25L182,78.21c.08-.25.25-.89.49-1.5a6.17,6.17,0,0,1,1-2.11c3.59-3.64,1.51-7.66,1-11.64a6.37,6.37,0,0,1,.74-4.25c3.47-4.63,7.2-9,10.88-13.52a3.61,3.61,0,0,1,1.59-1.29c4-1,7.92-2.7,12.08-.73,2.5,1.18,5.11,2.18,7.48,3.59a3.73,3.73,0,0,1,1.69,3c-.21,1.06-1.47,2.05-2.5,2.76-.7.49-1.77.44-3,.69l2.41,3.45c2.06-3.18,4-6.14,5.91-9.13,1-1.58,2.05-1.81,3.64-.7a2.44,2.44,0,0,0,2.36-.08c.55-.57,1-2.07.66-2.55-3.18-4.38-2-9.09-1.26-13.74.57-3.73,6.72-8.38,10.44-7.9,1.78.23,3.06,1.23,3,3.26a25.47,25.47,0,0,0-.25,3.36c.33,3-.28,5-3.78,5.36-.66.06-1.47,1.29-1.74,2.13a36.9,36.9,0,0,0-.84,5.17c2.07-3.39,4.22-.81,6.24-1,.52-2.07.89-4.09,1.54-6,1.26-3.73,3.83-4.17,6.48-1.22.06.06.09.18.16.2.82.23,1.73.75,2.44.56.4-.11.87-1.57.63-2.12-.66-1.5,0-2.16,1.06-3a11.08,11.08,0,0,0,1.61-2.44c.95-1.42,1.87-2.86,2.9-4.22.72-1,1.58-1.8,2.49-2.82-2.6-1.11-5-2.15-7.4-3.16a4.72,4.72,0,0,1-3-3.9c-.37-2.22-.94-4.4-1.31-6.62-.1-.61.06-1.67.42-1.84a2.3,2.3,0,0,1,2.11.14c2.95,3.39,7,3,10.8,3.2,2.09.1,3.28,1,3.42,3.06.16,2.45,1.39,3.22,3.74,2.69A22.84,22.84,0,0,1,272,13c1.58-.1,2.33.64,3.12,2.09,1.3,2.38,2.74,5.59,4.88,6.39,2.85,1.06,6.49,2.36,9.67.44a8.33,8.33,0,0,1,9.27,0,13.89,13.89,0,0,0,4.38,1.46c1.81.34,3.2,0,3.88-2.27.88-3,5.27-4.64,8.74-4.09a16.45,16.45,0,0,0,5.59,0c2.4-.46,4.49-.25,6.32,1.35,1.23,1.07,2.41.94,4,.8,5.11-.45,9.79-1.25,14.15-4.57,2.79-2.12,6.58-.42,9.65,1.07a9,9,0,0,0,7,.82c2.56-.77,4.46.91,4.36,3.61a59.52,59.52,0,0,1-.64,5.93,39.33,39.33,0,0,0,.17,8.52c.34,4.38-1.2,8.93-2.19,13.35-.14.64-1.63,1.08-2.56,1.43-1.51.55-3.08,1-4.83,1.48,1.74,4.77,4.76,9,3.38,14.11-.73,2.71-1.85,5.32-3.08,8.77-3.59-3.85-8.39-5.64-8.83-11.26-.1-1.29-1-2.51-1.36-3.81-.92-3.15-1.75-6.32-2.7-9.79a13.54,13.54,0,0,1-2.89,2.12,25.2,25.2,0,0,1-6.53,1.93c-2.39.26-3.64,1.39-3.87,4.67-.17,2.48.67,3.49,3.16,3.59a25.87,25.87,0,0,0,3.22-.24c1.78,1.13,3.53,2.16,5.2,3.31.75.52,1.79,1.21,1.91,1.94.52,3.32.81,6.69,1.06,10,0,.59-.48,1.23-.76,1.9,1.79,1.38,6.09-.78,5.55,3.63-.33,2.74,1.68,6.16-2.15,8.35.16,1.77.21,3.76.56,5.7a4.62,4.62,0,0,1-2.6,5.13c-1,.48-1.84,1.38-2.82,2-2.43,1.43-4.88,2.82-7.4,4.06-.21.1-1.5-1.07-1.5-1.65,0-2.54.27-5.09.5-8.33-2,2.26-1.08,5-2.26,7.54l-6.12-4.26c0,3,0,5.75,0,8.53,0,.3.2.79.42.86,2.55.87,1.93,2.81,1.37,4.49-.27.81-1.25,1.37-1.91,2a22.56,22.56,0,0,1-1.06-2.1,10.11,10.11,0,0,1-.36-1.72l-7.95,4.07c-.32,3.43-.32,3.43-2.46,4.11l1.87,14.5a19.7,19.7,0,0,1,3.69-2.57,28.3,28.3,0,0,1,5-1.12c.44,2.14,3,3.71,1.73,6.33a5.31,5.31,0,0,0-.15,1.16l4.24-1.75c-.65-1.07-1-2.27-1.71-2.68-2.19-1.21-2.52-3.24-2.65-5.29-.18-2.94-.17-5.89-.07-8.83,0-.72.69-2,1-2a4.45,4.45,0,0,1,2.94,1c.69.74.8,2,1.13,3.1.49,1.58.36,3.6,2.78,3.78.2,0,.44.28.57.49,1.06,1.66-1.48,7-3.49,7.39.67,1.16,1.1,2.6,2.06,3.4,1.43,1.2.94,2.28.86,3.78-.15,2.6.48,5.25.77,7.87a13.13,13.13,0,0,1,.29,3.52c-.1.58-1.09,1.18-1.8,1.45a38.3,38.3,0,0,1-3.86,1c-.41.11-.81.42-1.2.4-6-.27-12.1-.35-18.11-1-4.32-.45-8.61-1.68-11.54-5.25a11.06,11.06,0,0,1-2.13-4.75,62.93,62.93,0,0,1-.76-8c0-.69,0-1.75.43-2a2.52,2.52,0,0,1,2.18.08,18.7,18.7,0,0,1,2.7,2.27l.63-.45c-.69-1-1.4-2-2.07-3-.49-.74-1.47-1.67-1.3-2.25,1-3.32-1.31-4.6-3.49-5.74a17.06,17.06,0,0,0-11.38-1.47c-1,.2-2.27,1.13-3.11-.48,0,0-1.48.39-1.51.69-.14,1.2-.47,3,.16,3.56,2.28,2.15,4.15,7.17,2.84,9.9-.44.92-1.93,1.59-3.06,1.84-.56.13-2-.92-2-1.46-.09-5.56-4.95-7-8.21-9.84-1-.84-2.2-1.63-2.7-2.73-2-4.38-6-4.43-9.85-4.87-1.18-.13-2.36-.25-3.9-.41,0,1.6,0,3,0,4.31,0,2-.9,3.3-3,3.63-2.3.37-4.61.72-7.23,1.12,0,2.33-.08,4.64,0,6.94a9.94,9.94,0,0,1-2.76,7.55,30.91,30.91,0,0,0-3.37,5.2c-.24.41-.46,1.15-.25,1.45,1.57,2.29.71,4.24-.84,6.15l.57.52c.75-.69,1.85-1.24,2.19-2.09a3.32,3.32,0,0,1,4-2.13,4.57,4.57,0,0,1,2.66,2.65c2,5.09-2.64,13.13-7.94,14.17a3.88,3.88,0,0,1-4.2-4.07l.8-5-1.08-.48c-.56.91-1.53,1.8-1.6,2.75-.19,2.55-1.48,4.29-3.2,6-2.7,2.68-5.08,5.69-7.83,8.31a12.22,12.22,0,0,1-4.72,2.71,24.08,24.08,0,0,1-8.11,1.47,7.36,7.36,0,0,1-5.19-2.94c-3.1-5.16-5.6-10.69-8.44-16a4.67,4.67,0,0,1,0-4.78c.92-2,.6-4.52,1.15-6.73s.05-3.69-1.86-5.52l.38,4.78-.43.19-3-4,2.18.69V136.65l-2.08-.4,1.3,8.52c-.82-1.77-1-3.67-1.52-5.45a16.73,16.73,0,0,0-2.31-4.72c-.37-.52-1.78-.58-2.6-.38a2.18,2.18,0,0,0-1,1.79c.19,2.9.59,5.78.92,8.79l2.77-.16-1-8.83C187.32,139.28,186.35,143.42,189.31,146.36ZM192.1,92.9l2.76,4.5.62-.26A27.23,27.23,0,0,0,194.7,93c-.19-.56-1.11-.87-1.7-1.3-.29.41-.58.82-.86,1.24l-2.43,1.14,2.82,3.15.7-.51Zm37,72.87a9.18,9.18,0,0,1-1.73-2.47,50.66,50.66,0,0,1-.92-5.88c-1.14,1-2.34,1.59-2.39,2.23-.2,3.11-.09,6.24-.09,9.36l.9,0c1.6-2.73-.53-5.7.24-9.18l1.2,8.21,2.77-2.29.68-8.9C227.08,158.4,227.08,162.79,229.14,165.77ZM329.4,87.61c.49-.38,1.76-.88,2.19-1.78,1.44-3,4.14-5,5.86-7.63,3.07-4.61,1.52-9.84-.95-14.52-.37-.7-1.7-1.12-2.64-1.26-3.17-.46-4.56-2.07-4-5.24a10.79,10.79,0,0,1,1.32-3.9,3.46,3.46,0,0,1,2.51-1.56c5.57.38,9.07-1.89,10.75-7.3.37-1.19,1.87-2,2.85-3,.7.9,1.4,1.8,2.11,2.68.08.1.28.11.65.25l1.87-3.05L353,42a23,23,0,0,1-.39,4.48c-1.71,6,1.37,11,3.12,16.24.13.41.79,1,1.08.92.48-.1,1.23-.67,1.23-1a28.31,28.31,0,0,0-.42-6.52c-.7-2.84-2.1-5.5-2.87-8.33s1.1-5.2,4-4.76a3.16,3.16,0,0,0,3.75-1.89c.63-1.13,1.45-2.15,2.15-3.25,1.52-2.38,1.1-4.07-1.35-5.6-1.35-.84-2.23-6.55-1.17-7.69a1.32,1.32,0,0,1,.88-.45c3.56.25,2.65-2.65,2.73-4.34.07-1.53-1.07-2.34-3-2.18a26.79,26.79,0,0,1-7-.65c-1.85-.34-3.6-1.24-5.45-1.65a6.23,6.23,0,0,0-6.43,1.78c-2,2.2-4.45,2.75-7.27,2.71-1.79,0-3.58.44-5.38.47a9.79,9.79,0,0,1-3.15-.62c-1.67-.55-3.26-1.65-4.94-1.79-2.81-.23-5.67.17-8.51.2s-6.29,1.48-6.51,3.35c-.38,3.16-2.47,3.27-4.66,3a15.21,15.21,0,0,1-5.12-1.64c-2.77-1.5-5.28-1.77-8,.06a6.9,6.9,0,0,1-3.68.88c-2.43,0-4.87-.32-7.52-.52a23.12,23.12,0,0,0-1.43-2.78c-1.17-1.76-2.44-3.47-3.75-5.14-.45-.58-1.17-1.44-1.69-1.39-3,.28-6.33-.07-8.63,2.63-2.58,3-5.33,5.94-7.59,9.19-1.16,1.66-1.36,4-3.35,5.17-.12.07,0,.65.1,1,.56,1.77.1,3.09-1.7,3.75s-2.89,0-3.85-1.6-3.24-1.62-3.87.07c-.89,2.36-2.42,4.75-.09,8.18-2.27-.3-3.78-.62-5.3-.66a5.32,5.32,0,0,0-2.23.66c.5,2.51-1.38,2.49-2.91,3a12.11,12.11,0,0,0-3.21,1.63c-3.06,2.19-3,2.23-5.8.68-1.94,2.48-3.88,4.93-5.76,7.41-.24.32-.18.85-.36,1.23-.32.66-.72,1.29-1.09,1.93a9.76,9.76,0,0,1-1.92-1.16A15.68,15.68,0,0,1,213,54.81c-1.16-1.57-.65-2.54,1.1-3,.58-.17,1.31-.06,1.76-.37.77-.53,1.73-1.21,1.91-2,.12-.5-.9-1.52-1.62-1.91-1.89-1-3.88-1.87-5.87-2.7-3.14-1.32-6.27-2.17-9.24.48-.33.3-1.13.6-1.34.44-1.73-1.37-2.51.16-3.31,1.11-3.24,3.82-6.2,7.9-9.66,11.5-2.21,2.3-1.19,4.41-.75,6.71.4,2.07,2.12.81,3.17,1.24a4.84,4.84,0,0,1,1.9,1.23c1.81,2.21,4.11,1.3,5.93.56,2-.83,2.47-2.93,1.91-5.12a17,17,0,0,1-.79-4c0-3.29,3.89-6.33,6.81-5.42,0,.24.09.54,0,.74-.58,1.16-1.22,2.28-1.82,3.43-1.36,2.64-.56,4.35,2.25,5.13.74.21,1.95.93,1.9,1.29a3.9,3.9,0,0,1-1.38,2.2c-.7.6-1.81.73-2.48,1.35a5,5,0,0,0-1.66,2.55c-.46,3.23-1,4.23-4.22,4.41a9.89,9.89,0,0,1-5.19-1.51c-2.75-1.62-6.71-1.21-7.59,1.39a8.81,8.81,0,0,1-6.84,6.37c-.44.1-.81.55-1.29.9.33.66.59,1.19.87,1.71s.64,1,.87,1.59c.88,2.07.32,2.8-1.87,3-1.61.13-3.18.65-4.79.89-2.17.32-3.08,1.69-3.31,3.7a4.88,4.88,0,0,0,2.17,5,4.06,4.06,0,0,0,5.06.08,5.68,5.68,0,0,1,2.83-1.2C182,96.35,183,94.3,183,91.23a2.92,2.92,0,0,1,.53-1.95,4.92,4.92,0,0,1,2.71-1.4,16.26,16.26,0,0,1,3.95.8L190.3,91c1.07-.12,2-.51,2.78-.24,1.25.45,2.31,1.43,3.54,2a7.6,7.6,0,0,0,2.35.24c-.15-.77-.06-1.77-.51-2.26-1-1.07-2.31-1.82-3.39-2.82a9.32,9.32,0,0,1-1.26-1.95c6.05,1.37,9.84,5.09,12.32,10.67l2.36-5.5a4.37,4.37,0,0,1,.9.34c.19.16.46.37.48.58.26,2.86,1.76,4.12,4.64,3.79.37,0,.77.38,1.18.44a6.21,6.21,0,0,0,2.53.16c2.13-.66,3.16.06,2.92,2.27-.29,2.59-2.9,4.18-6.4,3.7-1.88-.26-3.69-.94-5.57-1.25-2.63-.44-5.09-.53-6.85,2.29-.48.77-2.49,1.19-3.55.89a35,35,0,0,1-7.13-3.06,3.35,3.35,0,0,1-1.28-2.64c.13-2.56-.13-3.07-2.74-2.59a24.16,24.16,0,0,0-4.29,1.66c-2.31.91-4.61,2.52-6.95,2.57-3.86.09-5.93,1.94-7.32,5.08a7.23,7.23,0,0,1-4.81,4.37,4.87,4.87,0,0,0-3.64,4.55c-.22,1.89-.31,3.8-.62,5.68-.4,2.4-.29,4.43,2.38,5.57.69.3,1.19,1.24,1.6,2,3.51,6.48,11,9.29,17.63,6.39,2.57-1.12,4.82-1.85,7.09.53.52.55,1.58.62,2.41.82,2.35.57,2.67,1.36,1.91,3.72-.37,1.14-.75,2.79-.22,3.63,2.31,3.64,3.19,7.38,2,11.57-.13.47.14,1.05,0,1.55-.18.89-.6,1.74-.73,2.64-.15,1.07-.5,2.36-.07,3.22,2.29,4.63,4.85,9.13,7.2,13.73s3.92,5.19,8.64,2.79a12.61,12.61,0,0,0,3.16-2.23,80.85,80.85,0,0,0,7.45-8,11.82,11.82,0,0,0,2.37-6.05c.25-3.92,0-4,3.65-5.07a4.38,4.38,0,0,0,2.37-6.59,4,4,0,0,1-.18-5,38.1,38.1,0,0,1,3.09-4.48c2.14-2.5,4.59-4.74,6.63-7.31A33.55,33.55,0,0,0,241.3,128a7.68,7.68,0,0,0-3.5-.13c-3.38.59-6.38,0-8.72-2.74a89.9,89.9,0,0,1-6.54-7.72,35.77,35.77,0,0,1-3.51-7.47c-.26-.67.4-1.7.63-2.56.75.34,1.77.48,2.21,1.05,1.68,2.18,3.18,4.49,4.72,6.77,2,3,3,6.63,7.61,7.18,6.35.75,12,.1,16.06-5.36a3.72,3.72,0,0,0,.65-2.8c-.12-.46-1.6-.84-2.44-.79-4,.26-7.06-1.48-9.62-4.27-.56-.61-.6-1.71-.88-2.58,1.09-.33,2.25-1,3.26-.87a7.6,7.6,0,0,1,3.06,1.86c4.24,3.42,8.51,5.42,13.95,2.18,2.55-1.52,5.91-.33,6.5,2.25.85,3.77,3.51,5.25,6.39,6.92a3.39,3.39,0,0,1,1.48,2.78c-1,3.72,1.09,6.22,3.15,9a10.58,10.58,0,0,0,1.35-3.72c.44-3.08,1.18-6,3.9-7.89,1.55-1.1,3.07-2.25,4.61-3.37,3.77-2.74,7.14-1.69,8.8,2.67.28.75.72,1.73,1.35,2,4,1.8,3.4,5.92,4.51,9.09.52,1.48,3.57,7.51,5.13,8.16a9.65,9.65,0,0,0,1.7.27,24.92,24.92,0,0,0-1.17-2.37c-.86-1.32-2.06-2.48-2.64-3.91-1.15-2.83-.65-5.66.92-6.1,2.65-.73,4.08,1.08,5.5,2.94.53.69,2,1.61,2.24,1.41,1-.76,2.32-1.87,2.44-3,.38-3.33-2.29-6.91-5.3-8.13-.72-.29-1.16-1.29-1.73-2,.79-.66,1.51-1.69,2.4-1.88a9.85,9.85,0,0,1,3.33.39,23.72,23.72,0,0,0,.46,3.28c0,.15,1.08,0,1.65,0v-3.85c.64-.1,1.49-.21,2.32-.37a9.71,9.71,0,0,0,7.84-12.23c-.81-3.4-1.43-6.85-2.13-10.28l-.58.34c-.65-1.05-1.8-2.09-1.84-3.16-.07-2,1.76-2.45,3.35-2.4A36.79,36.79,0,0,1,329.4,87.61Zm4.32,62.19,0-1A6,6,0,0,0,332,148c-4.38-.37-8.76-.72-13.15-.94-2.33-.12-4.66,0-7,0-1.42,0-2.5-.34-2.47-2.21,0-.66-.76-1.5-1.39-2-2.42-1.76-4.92-3.41-7.42-5.07-.21-.14-.61,0-1.59.06,3,3.56,2.73,9.16,8.68,9.51a3.18,3.18,0,0,1,1.18.51c4.38,2.36,9.13,2.2,13.88,2.09,2.19,0,4.39.09,6.59.06C330.77,150.08,332.24,149.91,333.72,149.81Zm-12-4.32a9.6,9.6,0,0,0,1.29-1.6c.72-1.47,1.17-3.1,2-4.48a5.18,5.18,0,0,0-.21-6.16c-.71-1.09-1.34-1.7-2.39-.79-2.65,2.32-5.24,4.72-7.77,7.18a1.68,1.68,0,0,0,0,1.61C317,142.7,319.26,144,321.75,145.49Zm14.49-50c2-1.17,3.76-2.06,5.35-3.24a6.65,6.65,0,0,0,2.15-2.75c1.19-3-1.11-7.23-5.54-9.71-.26,2.56-.62,4.87-.7,7.19-.06,1.93-.16,3.66-2.81,3.9Zm-175,33,.48-.06c.46,3.14.9,6.28,1.38,9.41.08.53.21,1.38.53,1.5,3.16,1.15,6.37,2.17,9.82,3.31-.51-6.73-.73-7.1-3.86-6.91l.58,4.4c-1.68-2.23-.23-5.33-3.38-6.84l.44,4.38-.29.06L165.55,132l-.95.22.67,5.34c-2.25-4-.1-9.35-4.63-11.77l-.8.29,1.29,6.36.46-.07Zm73.25,19.89,1.1-.08-.36-7.8.27,0,1,4.75c2.29-2.4,2.42-4.78.36-8.79-2.58,3.4-5,6.47-7.3,9.68-.95,1.34-1.05,2.83,1.23,3.63v-2.48l.26,0,2.22,10.44c2.62-5-.56-9.3.42-14ZM231.9,40.18a6.83,6.83,0,0,0,0-1.72c-1.7-5.59-.36-9.68,5.48-11.84.66-.24.91-1.57,1.35-2.4-1-.08-2.13-.53-2.93-.18-4.75,2.06-8.24,5-8.3,10.89C227.45,38.51,227.92,39.71,231.9,40.18Zm104.25,60.69a26.25,26.25,0,0,0,3.09-1.8c1.95-1.54,3.6-3.64,5.77-4.68,2-1,2.6-2.1,2.24-4A22.19,22.19,0,0,0,345.9,86c-1.1-2.58-1-2.89,1.77-3.73.56-.17,1-.76,1.48-1.15-.46-.44-1-1.27-1.39-1.24-1.3.1-3,.14-3.71.95s-.38,2.63.17,3.66c2,3.69.73,7.53-3.09,8.86C338.82,94.14,336.3,97.62,336.15,100.87Zm-25.32,44.77H319c-1.58-1.42-3.94-1.93-4.92-3.37s-.35-3.69-.46-5.89l-5.4-1.12c0,4.35,0,4.35-4.13,4C306.45,141.54,310.81,141.33,310.83,145.64ZM263,120.13l.85-.08a45.65,45.65,0,0,0-.09-7.08c-.3-1.89-1.92-2.79-3.94-2.52s-2.11,1.64-1.82,3.24c.26,1.41.44,2.84.66,4.26a20.14,20.14,0,0,1-1.49-4.68c-.15-.53-1-.87-1.48-1.29-.38.57-1.06,1.13-1.07,1.71a29.71,29.71,0,0,0,.45,4.09l-.26,0-1.59-4.95-.83.33a10.39,10.39,0,0,1,.72,2.91c-.16,3.34-.23,3.34,3.3,3.29l-.44-5.32.46-.05,1,5.79,2.51.11-.8-8.34.85-.11,1.19,8.7.79-.14-.41-6.69.51,0Zm-29.51,47c3.5.7,4.84-1.86,6-4s2.52-4.52.85-6.87C233.75,157.25,233.68,162.06,233.46,167.09Zm109.91-66.6c1.76-.68,3.3-.79,3.76-1.56.67-1.12.56-2.7.78-4.09l-1.07-.59c-1.86,1.44-3.72,2.87-5.57,4.32-1.2.95-2.25,2.44-3.6,2.78-3,.74-1.73,2.55-2,4l.64.24.82-2.43.54,1.8c2.7.1,2.95-1.79,3.09-4l1.07,2.74Zm-92.88-95c-1,2.83-.51,4,2.22,5s5.38,1.83,8.11,2.64a1.69,1.69,0,0,0,1.53-.46,6.57,6.57,0,0,0,.84-3.11c0-.36-1.51-.83-2.36-.91C257.25,8.31,253.43,9,250.48,5.52Zm34.42,116,.7-2.87.54,2.84.35,0,.64-3.6.58,3.82.58-.06.45-2.29,1.06,3,1-3.9c.32,4.24.42,4.35,2.56,3.82a27.51,27.51,0,0,1-1-3.42c-.33-2.2-2-4-3.74-3.26-3.36,1.4-6.09,3.8-8.7,6.26l.35.59ZM180.75,142.86l-.52.14c-.4-1.82-.72-3.66-1.25-5.44-.14-.48-.89-.78-1.35-1.17-.3.5-.85,1-.84,1.51a11.7,11.7,0,0,0,.6,3.28c.79,2.32,3.92,4.14,5.94,3.43-.29-2.43-.5-4.92-.94-7.36-.1-.58-1-1-1.47-1.55-.38.63-1.13,1.29-1.08,1.89A50.38,50.38,0,0,0,180.75,142.86ZM343.29,76.5l1.38-.38c-.21-2.44-.36-4.89-.63-7.32-.38-3.36-1.57-4.36-5.26-4.56Zm-95.09,51.3c3.25-1.64,4-5.14,2.07-8.65a20.17,20.17,0,0,1-2.71,2c-2.28,1.15-2.6,3-2.15,5.22.11.53.67,1,1,1.45a6,6,0,0,0,.92-1.71,9.21,9.21,0,0,0-.15-2.27l.55,0Zm4.72-112,.73.1.93-1.8.45,2.79.86-1.6,1.75,3.22.79-3.07.88,2.78.71-1.71h2.06c-.19-.67-.19-1.78-.59-1.94-2.86-1.19-5.81-2.19-9.27-3.45Zm79.41,116.27.8-.2.81-4.61c-2.48-.65-2.34-.68-2.89-2.94-.41-1.7.22-4.12-2.68-4.78C327.55,124.66,329.7,128.45,332.33,132.09ZM175.21,79.82c1.69-.83,3.92-1.22,4.33-2.31s-.74-3-1.35-4.5a17.81,17.81,0,0,0-1.53-2.65c-.5-.79-1-1.55-1.57-2.32l-1,.54c.71,1.58,1.84,3.11,2,4.75C176.28,75.14,175.63,77.06,175.21,79.82Zm95.95,40.37-4-2.07c-.15,6.88.78,10.37,4,8.8ZM203.67,99.9c-1.09.37-1.94,1-2.61.82-2-.46-4-1.33-6-1.82a15,15,0,0,0-3.39,0C196.44,104,200.85,104.22,203.67,99.9ZM326.15,89.84c1.62,2.86-1.41,6.71,2,9.83,0-3.4,0-6.29,0-9.18a1.47,1.47,0,0,0,0-.51,3.58,3.58,0,0,0-4.2-2.22c-.79.11-1.44,1.12-2.58,2.08Zm-17.33,40.28c-.87,4.55.56,5.69,5.85,5v-4.7l-.72-.26-1.24,2.63c-.33-.28-.84-1-1.48-1.16s-1.17.6-1.7.9Zm24.67,9.08c-2.91-1.17-5.33-.58-6,1.58-.44,1.44-2,3.43.81,4.23Zm-130-84.81c-2.67.92-4.61,2.32-4.35,4.61.31,2.76,1.59,5.4,2.46,8.1l1.07-.24c-.12-1.08-.2-2.16-.37-3.23-.29-1.76-1-3.53-.85-5.26C201.55,57.15,202.64,56,203.52,54.38ZM188.83,89.25c-1.58.1-3.76-.3-4.17.38-1,1.68-.39,3.66.66,5.28l.71-.06v-4.2c1.3,1.28.27,3.73,2.81,4.16Zm159.3-43.59c.09,4.28-1.47,8.72,1,12.77C348.85,54.17,350.54,49.72,348.13,45.66ZM330.33,89l-1,.59a56.65,56.65,0,0,0,2.18,5.57c.24.47,1.4.48,2.14.7.16-.78.72-1.82.41-2.29A52.28,52.28,0,0,0,330.33,89Zm-126,7.59c.06,1.86.35,2.5,2.1,2.81a17.19,17.19,0,0,0,3.9-.19l-1.08-5.38-1,.2.63,4Zm36.35,36.53c-2.57,2.44-2.83,5.28-1,8.55C242.29,139.21,240.93,136.29,240.67,133.16ZM238.52,32.41l.56-.08V26.77c-1.31.94-2.52,1.39-3,2.24a7.41,7.41,0,0,0-.24,3.36c0,.22.59.42.9.64.24-.9.47-1.81.73-2.71,0-.09.21-.13.32-.19ZM196.83,69.73c-1.41,1-2.55,1.49-3.78.32-.22-.21-1.09.27-2.28.6a41.37,41.37,0,0,0,4.34,2.89c1.43.7,2.63.57,2.16-1.59C197.14,71.36,197,70.78,196.83,69.73ZM350.64,66.1l.38-.19V47.33c-.59.29-.68.6-.69.91-.19,5.24-.39,10.48-.5,15.72A6.36,6.36,0,0,0,350.64,66.1Zm-44.37,67.83.94-.09c.21-1.67.72-3.39.49-5-.11-.81-1.56-1.44-2.41-2.15-.42.71-1.15,1.42-1.17,2.14a10.35,10.35,0,0,0,.8,3l.65-.13v-3.42l.42,0Zm-129.5,7.92a16.76,16.76,0,0,0-.36-1.93c-.44-1.39.37-3.49-2.08-3.78-.1,1.4-.3,2.8-.27,4.19C174.09,142,174.85,142.72,176.77,141.85Zm23.32-51.59,2.07,8.42C204,95.6,203.1,92.29,200.09,90.26Zm34.7-60.47c-3,1.2-3.46,4.47-1,8.66l-.59-6.17.35-.07.68,1.89.54-.06ZM352.41,68l1-.12c-.53-3.49.68-7.18-1.75-10.45Zm-5.79-13.72h.32V43a4.09,4.09,0,0,0-1.5,2.83C345.65,48.67,346.2,51.48,346.62,54.29ZM243.2,125l-2.91-1.35-.6,1,4.49,3.59.73-.51-.52-4.47-.73,0ZM357.27,43.59l.91,5.36.81-.08.77-2.78.57,2.32h.76c.07-1.09.57-2.49.08-3.18S359.15,44.31,357.27,43.59ZM231.56,153l-1.15,0c0,1.73-.07,3.46.06,5.18,0,.34.78.64,1.2,1,.29-.43.88-.89.83-1.28C232.29,156.25,231.89,154.63,231.56,153ZM196.13,93.93c-.37,3.84.13,4.89,2.54,5.21C198.41,97.11,199,94.8,196.13,93.93ZM329.45,101l.81-.17c.48-4,.19-5.13-2-6.51ZM346,83.64l2.58,4.41C349.42,83.83,349.2,83.45,346,83.64ZM210.6,96.92l3,4.21.46-.24v-4ZM199,68.45c-2.41,1.7-1.16,3.29-.48,5.07C201.31,71.92,199.57,70.31,199,68.45ZM217.5,177.13l.94.08.46-4.89C216.31,174,216.24,174.41,217.5,177.13Zm118-89.61.61,0c.11-1,.23-2,.33-3s.21-2.13.36-3.56l-2.07,1.3ZM200.43,93.78c-2.21,1.82-1.8,4.18.78,5.42Zm38.49,13.5,4.22,3.42C243.38,107.59,242,106.33,238.92,107.28ZM355.79,71.11l-.91-7.19-.91.15C354.28,66.24,353.18,68.64,355.79,71.11ZM221.46,171.69l1.63.19.33-4.26-1.31-.15Zm94.11-20.39,2,2.8c.44-.39,1.21-.76,1.25-1.18C319,151.18,318,150.72,315.57,151.3ZM304,147.74l-1,.65,1.84,3.46.91-.49C305.32,150.05,306.32,148,304,147.74ZM224.85,113.9l-1.11.33,1.52,5.25,1.06-.33Zm108.47,27.75c-1.74,1.49-3.54,2.49-1.82,4.88l.92-1.79.91,2.2Zm-67.63-24.83-1.36.25,1.2,5.49,1-.21Zm97.78-73.67-1-.12L362,47.66C364.59,46.46,364,44.81,363.47,43.16Zm.8-18.65c-1.86,2.48-1.66,4.47,0,5.69Zm-55,124.55-1.18.55,1.46,4.11,1.17-.45Zm15.41-6.53-1.16,3.28,3.68.77ZM314.6,154l1.17-.48-1.14-3c-.39.31-1.16.71-1.11.9A17.17,17.17,0,0,0,314.6,154Z"/><path d="M157.49,50.52a14.1,14.1,0,0,0,1.57.08c6.05-.61,5.82-.61,7.46,5.4,1,3.83.39,5.18-3.94,7-2.12.9-4,0-5.48-2.91-1.1-2.2-1.81-4.6-2.8-7.21a16.37,16.37,0,0,0-6.91,7.56,16.28,16.28,0,0,1-7.68,8.15c-3,1.5-4.26,1.25-5.51-1.81a44.51,44.51,0,0,0-5.94-9.91c-2.84-3.79-2.94-8.16-.8-12.52a6.65,6.65,0,0,0,.15-2.8c0-.82-.37-1.72-.13-2.44,1.39-4.14-1.12-7.54-2.07-11.22-.15-.58-1.12-1-1.79-1.37-2.83-1.58-6.58-2.22-6.27-6.85-2.17,1.6-2,3.87.56,5.93L113,30.46l-2.1-4.25c-.82,2.37-2.61,2.09-4.34,1.79-2.55-.43-5.08-.93-8-1.49l.76,2,10.54.64a7.78,7.78,0,0,1-.54,2c-1.27,1.77-.74,3.16,1,4.09,2.29,1.23,4.07,2.59,3.44,5.63a2.69,2.69,0,0,0,1,2c3.64,3.16,4,7.55,4.36,11.85.23,2.52-2,1.37-3.38,1.84l.93,3.87-5.37,1.38c.64,2.91.92,5.35,3.71,7,1.25.75,1.78,3.2,2,5s.52,2.84,2.25,3.63c2.73,1.23,4,3.34,3.89,6.61-.2,6.61,0,6.64-6.48,5.59a10.23,10.23,0,0,0-3.3-.4,30.3,30.3,0,0,1-4.16,3c-3.86,1.9-7.49,3.71-10.58,7.12a63.29,63.29,0,0,0-6,7c-1.56,2.33-3.39,4.49-5.08,6.69,1,.88,2.46,1.54,2.6,2.42a16.46,16.46,0,0,1-.34,5.61c-.1.5-1.31,1-2.07,1.09a17.64,17.64,0,0,1-3.89,0c-1.18-.1-2.34-.41-3.62-.64-.54,3-.44,5.55,1.81,7.14,2.53-1.23,4.78-2.48,7.15-3.45,2.6-1.07,3.32-2,2-4.62s0-4.07,1.83-4.34c2.4-.35,5.43-.31,7.3.92,1.4.92,1.45,4,1.92,6.1.06.28-.84.93-1.4,1.16-1.1.45-2.28.72-4.14,1.29l3.27,1c5,1.53,10.1,3.07,15.15,4.58a5,5,0,0,1,3.68,4.83c.23,3,1.84,4.16,4.69,4.42,3.88.36,7.73,1,11.59,1.53a5.57,5.57,0,0,1,5.18,5.75,12,12,0,0,0,0,1.82c1,5.16.21,9.78-3.65,13.66a5.86,5.86,0,0,0-1.28,2.77c-1.06,4.69-3.84,8.23-7.34,11.32a4.32,4.32,0,0,0-1.06,1.12,29.92,29.92,0,0,1-11.5,12c-4.6,2.83-5.61,7.5-4.5,13,.56,2.76,0,5.76-.15,8.65a1.8,1.8,0,0,1-.67,1.06c-1.33,1.16-7.75,0-8.78-1.45-2.22-3.18-4.45-6.36-6.79-9.45a6,6,0,0,1-1.08-5.08,20,20,0,0,0,.06-6.57c-.87-5.15-1.43-10.14,2.1-14.63a3.3,3.3,0,0,0,.65-2.17c-.73-6.87-3-12.92-9.06-17a19.25,19.25,0,0,1-4.25-3.77c-3.55-4.4-5.27-9.13-2-14.55a31.87,31.87,0,0,0,1.89-4.05c-1.86-2.29-3.24-4.15-4.8-5.85A7.66,7.66,0,0,0,75.46,127c-1.76-.76-3.82-1.05-5.33-2.14a11.61,11.61,0,0,0-6.38-2.37,33.16,33.16,0,0,1-9.38-1.79c-1.59-.59-2.85-2.57-3.84-4.18a45.64,45.64,0,0,1-2.62-6l-2,3c-1-.87-2.4-1.54-2.93-2.64-1.81-3.71-3.22-7.61-5-11.36a16.87,16.87,0,0,0-2.91-4.24,7.77,7.77,0,0,1-1.91-8.15c.79-2.47,1.66-4.92,2.68-7.31a3.39,3.39,0,0,0-.62-4c-2.32-2.73-2.15-3.83.36-6.2a2.32,2.32,0,0,0,.57-1.78c-.24-1.51-.7-3-1.22-5.08L33.21,66.2l-1-.08c-.08-1.4-.63-3-.14-4.15,1.19-2.81.8-4.83-1.43-6.08a55.26,55.26,0,0,1-5.44,1.93,22.85,22.85,0,0,0-9.29,4.74c-2.65,2.15-6.5,2.89-9.91,4-.57.18-1.93-.94-2.36-1.75A76.48,76.48,0,0,1,.05,56.89a2.51,2.51,0,0,1,.65-2c1.59-1.82,3.42-3.45,4.94-5.33a2.64,2.64,0,0,0,.18-2.5c-3.6-4.17-2.89-8.36,2.06-11.15.74-.42,1.53-.75,2-1-.68-.87-2.07-2.12-1.86-2.49a12.28,12.28,0,0,1,3-3.17,3,3,0,0,1,1.74-.41c2.13,0,2.81-1,2.07-3-.86-2.28.07-3.64,2.25-4.37a8.76,8.76,0,0,1,2.44-.84,26.75,26.75,0,0,0,12-2.6c1.17-.58,2.21-.08,2.87,1.37a4.32,4.32,0,0,0,2.41,2.25,11.07,11.07,0,0,1,6.92,5.1c.89,1.43,2.08,1.42,3.58,1.75,3.24.73,6.24-.95,9.34-.26,2.17.48,4.3,1.11,6.93,1.79-.11-1.36.1-2.42-.31-3.12C61.67,24.27,63,22.19,65,21c2.73-1.58,5.87-2.44,8.83-3.62l.29.69a1.69,1.69,0,0,0,.14-.48c0-1.5-.69-3.69,0-4.35a16.14,16.14,0,0,1,6.07-3.2c2-.62,3,.5,2.43,2.59-.76,2.58.1,3.1,2.49,2.64,1.94-.37,2.91.58,2.84,2.62s0,4.12,0,6.31c.74.09,1.22.11,1.69.2a5.73,5.73,0,0,1,1.4.38,14.91,14.91,0,0,1-.72,4.12A15.38,15.38,0,0,1,88.21,32c-.61-.59-1.63-1.1-1.76-1.78a23.09,23.09,0,0,1-.08-4.3c-2.45,1.65-2.81,4.19-.82,9.18,2.14-2.48,4.62-3.69,7.81-2L94.65,31c-.59.1-.88.12-1.15.2-1.92.57-2.57,0-2.11-2,.65-2.85,2.38-4.07,5.46-3.86-.58-1.84-1.32-3.64.8-4.85a8.3,8.3,0,0,0-.5-1.86,10.75,10.75,0,0,1-1.5,2c-1.09.82-2.69,2.37-3.37,2.06-1.31-.6-2.22-2.21-3.05-3.56-.18-.29.57-1.59,1.13-1.82a12,12,0,0,1,9.59.29,2.54,2.54,0,0,1,1.35,1.71c.17,2.27,1.7,2.73,3.48,3.18a48.55,48.55,0,0,0,5.67,1.4,18.92,18.92,0,0,0-3.54-1.92c-2.42-.72-3.42-2-3-4.47a1.88,1.88,0,0,0,0-1.12c-1.81-3.21-.55-9.51,2.48-11.56a2.06,2.06,0,0,1,2,.19,37.27,37.27,0,0,1,3,5.27,21.88,21.88,0,0,1,.92,4l2.51-4.72a2.89,2.89,0,0,0-.34-.62c-1.26-1.14-3.29-2.25-2.29-4.14a6.68,6.68,0,0,1,4-3.08A94.65,94.65,0,0,1,129.37,0c2.93-.18,5.92,3.25,6.85,6.83,2.67.66,5.11,1.4,7.6,1.81a3.28,3.28,0,0,0,2.33-1.14C150.77,2.53,156.42,2,162,6c2.29,1.63.21,2.55-.73,4.32,2.36.27,4.42.59,6.49.72,3.1.2,4.16,1.24,4.15,4.29,0,2,.08,4,0,6a7.79,7.79,0,0,1-.67,2.73c-2.31,5.18-4.54,10.41-7.08,15.48-1.41,2.81-3.4,5.32-5.08,8C158.51,48.31,158.12,49.25,157.49,50.52ZM128,173.06l.9,2c2.23-2.12,2.29-5.12.29-8.08-2,1.11-2,1.1-1.55,3.07.22,1,.29,2,.41,3.05l-1.38-3.73c-2,1.23-2.12,3.7-.59,7.88C128.28,176.6,127.76,174.66,128,173.06ZM106.88,91c-.24-1.34-.4-2.69-.73-4-.19-.73-.59-1.92-1-2-.9-.13-2.46.07-2.75.64a41.33,41.33,0,0,0-2,5.86l-.69-2.86c-4.78,1.2-1.6,5.15-2.74,7.7l-.91-6c-2.22,1.75-2.74,5.94-1.39,10.45,1.36-.91,3.13-1.46,3.71-2.62,1-2.07,1.36-4.49,2-6.76l.63,3.16c3.74-1,1.72-4.13,2.75-6.15l.39,5.26,2.76-2.76c.88-.11,2.5-.12,2.52-.33a15,15,0,0,0-.11-4.51c-.07-.38-1.3-.55-2.36-1Zm54.59-52.79L162.64,40c1.58-3.65,1.29-7.55-1.19-10.13v5.36l-1-1.25c-3.19,1.83-5.05,4.16-4.6,7.87.08.63-.41,1.31-.5,2-.27,2-.47,4.09-.69,6.13,4.06-1.22.44-4.17,2-6.16l.74,3,.79-.17-1-6.57.4-.08,1.16,5.19c2.16-2.79.45-5.5.69-8.15l1.29,4.42.77-.09ZM83,109.06c.6-1.81,1.19-3.32,1.61-4.88,1-3.73,2.6-6.93,6.44-8.6a3.34,3.34,0,0,0,1.52-2.45c.13-2,1.2-3,2.81-4a21.79,21.79,0,0,0,5-3.64,5.5,5.5,0,0,1,5.56-1.86,39.47,39.47,0,0,0,4.2.39l.18-.59-8.45-4.7c2.13-2.6,7.15-3.48,9.23-1.91a1.64,1.64,0,0,1,.65,1c.11,3,2.53,3.94,4.71,4.83,1.46.6,3.21.55,3.92-1.38s-1-2.5-2.19-2.86c-2-.58-2.23-1.77-2.42-3.63a15.36,15.36,0,0,0-2.12-5.32,47,47,0,0,0-3-4.34c-.62-.9-1.21-2.59-1.85-2.6-2.92-.06-3.38-2.46-4.58-4.18-1.34-1.92-3-2.23-4.49-.55C97.81,60,95.45,62,95.52,65.33a2.31,2.31,0,0,1-1,1.69c-2,1.2-2.51,2.94-2.36,5.09a9,9,0,0,1-.33,2l-.68.08c-.8-1.7-1.61-3.39-2.39-5.09a6.1,6.1,0,0,0-4.48-3.92,5.75,5.75,0,0,1-4.81-5.06,6,6,0,0,1,3.12-6.55,22.86,22.86,0,0,0,3.14-2.26c1-.89,1.91-1.94,2.86-2.91a13.36,13.36,0,0,0,2.48,3,7.89,7.89,0,0,0,3.66,1c.36,0,1.3-1.29,1.16-1.58-1.56-3-.14-4.84,2.3-6.41a2.77,2.77,0,0,0,1-1.73,2.24,2.24,0,0,0-.52-1.82c-.36-.29-1.26-.14-1.82.08s-.91.79-1.4,1.13c-1.81,1.27-2.89,1-3.35-1.17-.36-1.61-.33-3.3-.57-4.94a17.6,17.6,0,0,0-.71-2.42c-1.09.5-2.41.77-3.2,1.57-.52.52-.16,1.83-.39,2.74a17.23,17.23,0,0,1-1.07,2.53l-.78-.34.31-3.41c-3.64,4.13-3.64,4.13-8.84,2.76-.17,0-.34-.18-.49-.15-1.1.21-2.41.14-3.24.74A2,2,0,0,1,70,39.66c-2-2.27-4-4.51-6-6.86s-8.68-4-11.53-2.62c-2.62,1.31-8-.16-9.65-2.64a11,11,0,0,0-6.76-4.89,3.82,3.82,0,0,1-2.47-1.85c-.72-2.15-1.84-1.64-3.41-1.19-2.7.78-5.49,1.27-8.23,1.88a48.27,48.27,0,0,0-4.76,1.12c-1.27.42-1.74,1.32-1.45,2.85.72,3.83.62,3.87-3.33,4.51-1.68.27-3.22.64-3.2,2.8l4.36,1.47c-1.54.83-2.44,1.23-3.25,1.77a26.09,26.09,0,0,0-4.94,3.62c-1.76,1.94-1.37,4.2.49,6,2.38,2.3,2.4,2.83.1,5.16C4.44,52.42,2.81,54,1.19,55.61l.4.67a27.16,27.16,0,0,0,2.81-.85c2.23-.94,4.44-2,6.65-2.94a8.65,8.65,0,0,0,5-5.26A3.71,3.71,0,0,1,21.54,45c3,1.94,5.7,4.3,8.5,6.51a3.62,3.62,0,0,1,.68,1.1,47.29,47.29,0,0,1,3,5.42c1.35,3.33,2.48,6.76,3.54,10.19.2.65-.15,2-.62,2.24-3.17,1.44-1.94,3.2-.4,4.83a3.82,3.82,0,0,1,.82,4.7c-.89,2-1.58,4-2.36,6-1.33,3.49-.9,6.53,1.9,9.26a13.6,13.6,0,0,1,2.62,4.1c1.69,3.69,3.2,7.47,4.84,11.18a8.22,8.22,0,0,0,1.34,1.67l.72-.32-2.24-8.52.83-.37a39.31,39.31,0,0,1,2.72,4.18c1.45,3,2.56,6.07,4.09,9,.72,1.37,1.88,3,3.2,3.46a33.73,33.73,0,0,0,9.09,1.7,12.8,12.8,0,0,1,6.91,2.39,18.32,18.32,0,0,0,6.12,2.16c.56.13,2-1,2-1.52a3.62,3.62,0,0,0-1.39-2.62,5.85,5.85,0,0,0-3-.38c-1.84,0-2.2-.72-1.71-2.45a13,13,0,0,0,.06-3.45l-.81-.1c-.3.75-.66,1.49-.9,2.26a2.58,2.58,0,0,1-3.62,1.9c-3.9-1.17-5.85-4.12-6.82-7.84-.82-3.11,1.52-4.49,3.48-6.06.47-.38.92-.8,1.4-1.16,5.84-4.48,12.91-3,16.48,3.35A9.79,9.79,0,0,0,83,109.06Zm-3.29,19.26-.58,1.09a43.6,43.6,0,0,1,3.78,2.38c.54.42,1.21,1.35,1.08,1.85a18.25,18.25,0,0,1-1.9,5c-3,4.88-2,9.26,1.43,13.36a15.76,15.76,0,0,0,3.65,3.27c6.84,4.24,9.11,11,10.29,18.36a4.2,4.2,0,0,1-.82,2.9c-3.54,4.55-2.94,9.47-1.8,14.61.41,1.84-.1,3.86,0,5.79.09,1.63,0,3.51.81,4.81,1.87,3.1,4.32,5.84,6.32,8.87,1.2,1.82,2.39,1.18,3.75.52,1.64-.79.95-1.88.46-3-.86-2-2-4.08-2.32-6.22-1-7,2.91-12.39,6.27-17.92a4.06,4.06,0,0,1,1.9-1.29c2.52-1.06,4.1-3,5.57-5.21a50,50,0,0,1,4.74-5.38c3.63-4.09,8.08-7.72,8.07-13.91,0-2.67,1.36-4.27,3.57-5.55a8.79,8.79,0,0,0,3.18-2.9c2.11-3.6.89-6-3.16-6.54-3.69-.51-7.39-.89-11.07-1.43-4-.59-4.84-1.39-5.4-5.37a4.47,4.47,0,0,0-3.49-4c-2.31-.71-4.54-1.64-6.83-2.39-1.31-.43-2.69-.61-4-1-2.34-.75-4.65-1.61-7-2.4-1.2-.41-2.55-1.36-3.58-1.08-2.63.7-5.5,1.47-7.56,3.11S81.54,130.69,79.74,128.33ZM162.09,7.78c-5-4.61-11.41-4.11-15.44.93-1.18,1.47-2.56,1.81-4.06.74-2.11-1.52-4.12-1.23-6.35-.25a58.72,58.72,0,0,0-14,8.29c-3.94,3.24-3.76,5.79.9,7.74a6.45,6.45,0,0,1,4.1,4.87c.82,3.25,2.34,6.37,1,9.84-.13.33.24.82.23,1.23,0,1.27.26,2.74-.27,3.77-1.3,2.56-1.88,5.28-.74,7.76a47.58,47.58,0,0,0,5.42,8.35c.3.4,2.22.18,2.8-.37A18.72,18.72,0,0,0,139,56.38a19.87,19.87,0,0,1,9.23-8.43A15.09,15.09,0,0,0,152,45.75c1.12-1,2.67-2.4,2.65-3.6-.08-3.89,1.81-6.46,4.4-8.93a9.5,9.5,0,0,0,2.06-3.56c1.11-3,1.91-6.11,3.08-9.07a17.46,17.46,0,0,1,2.66-4.18c1-1.28,2.24-2.39,3.38-3.58l-.38-.88c-1.78,0-3.55,0-5.33,0-1.93,0-3.55-.45-4.48-2.74Zm-27.27-3.6c-2.21-1.18-4.08-3-5.86-3a85.16,85.16,0,0,0-13.82,2c-2.46.52-2.65,2.07-1,4,.63.76,1.68,1.9,1.48,2.5a19.39,19.39,0,0,1-3.15,6.45c-.9,1-3.08,1.26-4.71,1.35-2,.12-2.28,1.06-1.93,2.59l4.39,1.68c1.34-.75,2.52-1.37,3.65-2.06a18.89,18.89,0,0,0,3.41-2.29c4.72-4.59,9.4-9.2,15.57-11.9A14.52,14.52,0,0,0,134.82,4.18ZM116.9,49.06c-.74-1.58-1.09-3.07-2-4.06-1.57-1.74-2.89-3.38-2.53-5.92.07-.51-.53-1.26-1-1.67-2-1.66-4-3.22-6.17-5l2.55-1.87-.23-.91a57.46,57.46,0,0,0-7.65,1.19c-1.68.48-3.13,1.75-4.66,2.72s-1.28,2.35.09,2.73a14.91,14.91,0,0,0,6,.34c4-.59,4.57-.34,5.1,3.77a16.84,16.84,0,0,1,.09,2.07c0,4.68,0,4.65-4.52,6a2,2,0,0,0-1.22,1.37,2.42,2.42,0,0,0,.79,1.91,39.33,39.33,0,0,0,6,3.42,4.93,4.93,0,0,0,3.61.1c.63-.29.81-1.89.92-2.92a41.18,41.18,0,0,0,0-4.28ZM4.37,56.56c.67,1.6,1.25,3,1.87,4.42,2.15,4.88,3.07,5.15,7.69,2.3A15.19,15.19,0,0,0,15.59,62c1.51-1.25,2-2.64.94-4.52a27.93,27.93,0,0,1-1.53-4l.45-.18L18,59.54l2.26-1.32-2.62-7.8a32.66,32.66,0,0,1,2.53,5.4,11.33,11.33,0,0,0,1.5,2.07,9.05,9.05,0,0,0,.23-2.46c-.44-2.43-1-4.84-1.58-7.25l.62-.13c.46,2,.92,4,1.38,6,.79,3.46.87,3.5,4.77,2.46l-.55-3.13.27-.09L28,56l.8,0c.15-1.28.88-3.24.33-3.72-1.67-1.46-3.84-2.35-5.82-3.47-.48.42-.61.19-.68-.05-.43-1.38-.53-3-2.53-3.12s-2.55,1.29-3.39,2.68a15.72,15.72,0,0,1-3.42,4.11c-1.11.89-1.34,1.61-.88,2.82.71,1.84,1.35,3.7,2,5.56L14,61,11.1,53.62Zm74.44,63.49a38.42,38.42,0,0,0-1.55-5c-.91-1.93-.6-3,1.54-3,1.87,0,3.73.63,5.62.74.68,0,2-.64,2-1a30.31,30.31,0,0,0-.6-4.62l-.82.13.69,5-.67.51c-1.53-1.59-3.5-2.95-4.5-4.82-2.59-4.88-6.6-5.77-10.49-1.94-3.11,3.06-3.27,8-.63,10.48,1-.93,2.42-2.81,3-2.59,2.85,1.06,2,3.74,1.8,6.15ZM70.08,31.59a8,8,0,0,0-.78.6c-.62.61-1.81,1.37-1.71,1.83a3.68,3.68,0,0,0,4.76,2.5c2.75-1.38,5.12-.68,7.64.6,2.68,1.36,4.32.36,3.78-2.49-.59-3.09-1.08-6,.62-9.13a11.85,11.85,0,0,0-4.53,1.25c-3.1,1.86-3.42,1.9-6.37-.43a2.32,2.32,0,0,0-2-.46C69,27.25,68.63,29,70.08,31.59Zm83.54,14.33c-3.38,2-6.74,3.7-9.66,5.92-5,3.85-6.19,9-3.81,15.38,4.7-3.91,8.4-8,6.38-14.75l.86,4.65c3.44-1.52,1.53-4.32,2.25-6.53l.7,3.63C154.8,51.62,155,51.23,153.61,45.92ZM114.43,182.65c-1.71,1.07-3.12,1.46-3.64,2.37a79.35,79.35,0,0,0-5.62,11,11.5,11.5,0,0,0-.18,6.64c.68,2.59,2.26,4.94,3.48,7.38a15.51,15.51,0,0,0,.94,1.47l.42-.24-.68-3.23c.74-.35,1.23-.87,1.21-1.37a19.1,19.1,0,0,0-.53-3.58c-.72-3.08-1.5-6.14-2.26-9.21l.35-.1,1.25,3.42.69-.11.41-6.87.75,2.58.81,0,.76-4,.93,1.53C117,188.19,114.08,185.71,114.43,182.65Zm7.73-6.36,1.2,5.53c2.11-2.5,2.24-4.51.89-9.28-6.24,2.89-8.17,8.27-5.06,14C123.73,184.17,122.89,180.26,122.16,176.3ZM82,11.12a6.57,6.57,0,0,0-6.07,2.74,2.46,2.46,0,0,0,.09,2.2A21.64,21.64,0,0,0,78.46,19c1.5,1.7,6.09,1.83,7.57.12A7.82,7.82,0,0,0,87,16.88a7.44,7.44,0,0,0-2.32-.5c-2.58.3-3.2-.23-3-2.89C81.73,12.82,81.83,12.16,82,11.12ZM93.57,41.84c.85-.58,1.48-1,2.08-1.43,2.26-1.73,4.14-1.47,5.5,1.05.54,1,.41,2.33.76,3.46a13.88,13.88,0,0,0,1.22,2.32c.75-.7,2.11-1.36,2.15-2.1a76.92,76.92,0,0,0-.31-8.09c-4.42,1.11-8.22,2.16-11.78-.75l-.52.47Zm1.74,19.82c-5-4.44-7.37,0-10.13,1.6l6,6Zm73.55-37c2.26-1.73,2.57-5.28,1-9-6.1,2.4-6.63,10.62-3.73,15.27,1.94-2.76,0-5.5.25-8.29l1.21,3.8.57-.17-.48-5.57.42,0ZM134.13,163.4l.56.36a8.89,8.89,0,0,0,1.05-2.37,11.44,11.44,0,0,0-.32-2.8c-.1-.82-.2-1.64-.3-2.46h.34l1,4.28c2-2.58.47-4.92.49-7.41-4.47,1.28-5.9,3.39-5.36,7.47.29,2.14.54,4.28.86,6.41a13.69,13.69,0,0,0,.58,1.94l.94-.2-1.26-10.46.2,0Zm-70.2-54.18.57,0c.18,1.62.36,3.23.54,4.85.36,3.18.36,3.18,2.8,3.63-2-5.13-1.94-9.88,2.31-14.06a27.75,27.75,0,0,0-7.22,4.87c-1.91,1.92-1.1,5,1.42,6.64Zm98.65-57.9c-5.42.27-6.28.67-6.19,2.45s2.09,3.27,4.4,3.12c2.14-.14,4.37-2.07,3.84-3.69C164.31,52.23,162.91,51.61,162.58,51.32Zm-41.26,32c-4.86,2.33-7.86-.47-11.1-2.63l5,8.12.43-2.34A9.22,9.22,0,0,0,118,88.61c.38.16,1.33-1,1.81-1.38L121,89l.88-.32ZM97.59,22.79l-.65.58a16.76,16.76,0,0,0,3.2,2,22.35,22.35,0,0,0,5,1.1,30.87,30.87,0,0,0,4.29-.08l-3.94-2.78a.56.56,0,0,0-.25-.05c-2.66-.28-4.95-1-5-4.09ZM104,15c3.39,0,6.44-3.28,5.87-6.21a3.88,3.88,0,0,0-1.67-2.4c-.4-.22-1.66.61-2.22,1.24A8.55,8.55,0,0,0,104,15ZM93.52,96.65c-4.94.58-5.53,3.07-4,10.69,3.18-2.1.57-5.37,1.67-8l.74,5.22,1.06,0ZM73.95,24.38l.7-3.55c-2.63,1.48-5.42,3.11-8.26,4.62-2.3,1.23-2.76,2.42-1.66,4.69.42.85.73,1.76,1.33,3.23.67-1.1,1.83-2.11,1.73-3C67.33,26.31,69.6,23.9,73.95,24.38Zm7.92,33.75.37-.12,1.33,3.84.53-.16-1-5.17.41-.08,1.42,5.4c2-1.09,1.92-4.46-.09-7.72-2.41.56-4.05,1.87-4.3,4.48-.14,1.46,0,2.82,2,3.63ZM133.21,6.7c-6.24,2.52-10.38,7.44-15,11.69a23,23,0,0,0,4.31-2.46c1.67-1.21,3.22-2.59,4.88-3.8.9-.66,2.19-.92,2.86-1.72C131.2,9.25,134.65,10.29,133.21,6.7ZM89.44,58.64c1.53-1,1-5.37-.85-8.44-2.85,2.42-3.19,6.22-.38,10.17V53.59l.41,0ZM63.73,25.53c3.42-1.84,7.12-2.49,9.37-5.9C67.81,19.67,64.17,21.86,63.73,25.53ZM113.57,56.1l-7.11,1.12,1,2.85,1.37-.62L110,61.62l1.66-2.79,1.94.35ZM93,54.24c-.08,4.86-.08,4.88,1.95,5l-.3-2.65.27-.07,1.19,2.89L99.26,56l-.39-.33L96.53,57l-.31-3.38ZM88,100.65c-3.06,3.4-.81,7-.32,10.51C89.5,107.75,88,104.17,88,100.65Zm1.38,14.51c-3.68-.58-6.77-2.4-10.89-1.84C82.33,116.07,87.91,117.14,89.33,115.16ZM2.57,57.57C3,62.73,5,66.11,7.18,65.3,5.74,60,4.25,57.52,2.57,57.57ZM115.84,188.47c2.72-1.2,2.83-3.51.68-7.31C113.59,183.38,115.83,185.88,115.84,188.47ZM138.15,60.41c-2.37,2.1-2.35,3.77.07,7.59C139.74,65.66,138.2,63.26,138.15,60.41ZM98,52.24l2.82-7.06C95.92,47.56,95.79,48,98,52.24Zm2.14,66.82c-1.11-2.43-5.75-2.52-7.76,0ZM96,18.71l-.82-1.54-4.12,1.44,1.28,2.83Zm-.25,101.68c0,3.95.27,4.19,3.36,3.43l-.38-3.43Zm14.56-42.46h-5.88l2,2.52.39-.65,2.14.79Zm2.2-56.52,1.89,5.66.89-.14L115,20.57Zm-30.1,1.94,5.13.87c-.33-1.17-.39-2.75-.92-2.94a6.14,6.14,0,0,0-3.5.27C82.77,21.67,82.68,22.73,82.45,23.35Zm56.69,127.51h-.84c-1.27,2.32-.3,4.62.84,6.91Zm-7.64,12.64-.78,0c-1.14,2.66-.14,5.1.75,7.56l1-.1ZM90.59,26.18c-3.39,1-3.79,2-2.14,5.22Zm25,24c-.39,4.17.07,5,2.4,4.75C117.34,53.39,118.07,51.24,115.59,50.2ZM75.53,22.59l-.84.25a11.94,11.94,0,0,0,.71,3.62c.23.44,1.71.22,3.4.36Zm88.68,4.64-1.4.11,1.25,6.49,1.12-.17ZM105.73,58c.53-3-1-3.91-2.73-4.43-.44-.13-1.18.75-1.78,1.17l.44.75,2.18-.3Zm-19.21,63.8L88.75,120l-2.32-2.71-.81.57ZM164,61.37l-2.53-3.51c-.28.54-.88,1.17-.76,1.59a5.34,5.34,0,0,0,1.42,2.29C162.42,62,163.28,61.54,164,61.37ZM95.53,124.1l-.89-3.72-.52.07-.29,2-1.13-2.23C92,123,92,123,95.53,124.1Zm-13.4-4c.67-3.66.67-3.66-1.77-3.84ZM97.56,27.21c-4.1-.08-4.57.24-4.66,3Z"/><path d="M358.09,155.1c1.55,4.85,3.18,8.89,6.74,12.26,3.1,2.94,3.93,7.26,4,11.66,0,6-2.72,10.16-7.84,12.92-2,1.07-4.09,1.94-6.16,2.9l1.72,1.13-.76,2.54.5-.06c.17.64.61,1.35.48,1.91a6.68,6.68,0,0,1-7.07,5.16c-.68,0-1.84-1-1.84-1.6a38.87,38.87,0,0,1,.65-6.33,19.21,19.21,0,0,1,1.26-3.24,49.91,49.91,0,0,1-7.32-1,13.88,13.88,0,0,1-5.92-3c-2.08-2.1-4.08-1.91-6.6-1.57a28.19,28.19,0,0,1-8.15.05,5.78,5.78,0,0,1-4.12-8.49c1.65-2.94,1.25-5.48.46-8.4-1.87-6.93-1.4-7.81,5.68-8.85,3.66-.54,6.34-1.9,8-5.27.89-1.86,2.2-2.83,4.38-1.69,1.43.75,2.53.37,2.89-1.35.52-2.48,1.94-2.78,4.24-2.19s4.12,1,3.56,4.22c-.18,1,1.44,2.84,2.67,3.54,1.75,1,2.51-.78,3.19-2.09.4-.76.76-1.53,1.17-2.38a3.53,3.53,0,0,0-1-.49c-4.41-.28-6.94-3.92-10.41-5.85a2.94,2.94,0,0,1-1.41-1.78c-.45-3.11-.71-6.25-1.06-9.57.85.06,1.28,0,1.49.12,4.15,3.31,9.45,2.93,14.18,4.37a18.88,18.88,0,0,1,9.45,6.08c1.45,1.77,1.37,6.15-.27,7.62a2.7,2.7,0,0,1-2.11.28C361.25,156.3,359.91,155.73,358.09,155.1Zm-1.72.18-1,.2a27.16,27.16,0,0,1-2.56,4.42,4.25,4.25,0,0,1-3.07,1.58,5.23,5.23,0,0,1-4.78-5.28c0-2.23-1.6-2.34-2.9-2.51-.56-.07-1.65,1-1.88,1.76-.62,2.06-1.94,2.75-3.73,2-2-.8-3.21-.07-4,1.59a8.5,8.5,0,0,1-7.84,5,17.19,17.19,0,0,0-3.06.59c-3.09.73-3.45,1.25-2.87,4.27.26,1.36.57,2.72,1,4,.7,2.38,1.21,4.65-.49,6.92-1,1.33-.17,2.4,1.25,2.64a7.33,7.33,0,0,0,3-.34c3.4-.91,6.77-1.94,10.17-2.85a5.26,5.26,0,0,1,6.58,2.73c.35.63,1.76,1.37,2.14,1.15,2.62-1.54,3,.14,3.24,2.06.63,4.18,1.23,4.88,5.45,4.82a14,14,0,0,0,5.68-1.38c4.76-2.29,7.55-6.52,9.86-11,1.32-2.58.08-7.79-2.25-9.53a15.81,15.81,0,0,1-5.52-8.26A32.46,32.46,0,0,0,356.37,155.28Zm-14.79-14.45a21.91,21.91,0,0,0,3,3.61c2.33,1.82,5,3.2,7.28,5.07,3.28,2.68,4.21,2.64,6.3-1.36l7,3.36a4.49,4.49,0,0,0-.26-1.19,17.47,17.47,0,0,0-1.29-1.61c-3.77-4.17-8.91-5.32-14.1-6.33Zm-1.14,48.12-.37.07c-.28-1.68-.5-3.38-.86-5-.65-3.08-2.2-4.05-5.22-3.46a22.56,22.56,0,0,1-3,.32c-4,.23-6.59,3.17-5.46,6.36.18.5,1.06.76,1.62,1.13a5.4,5.4,0,0,0,.73-1.6,15,15,0,0,0-.16-2.55l.52,0,.58,3.29c.81-.42,1.16-.88,1.23-1.38.09-.67-.07-1.38,0-2.07a20.81,20.81,0,0,1,.39-2.21l.59,5.46,1,0,.61-4.54.73,4.66,1-.12.5-4c.91,2.11-.17,4.77,2.67,6.25l.34-6.12c.94,3.38-1.08,8,4.77,8.7.89-5,.24-7.24-2.06-6.89ZM359,149.23l-1.94,4.1.77.41,1.1-2,3,3.72.69-2.27.83,1.68C364.14,151.38,361.11,151,359,149.23Zm-3.75,47.89-.34-1.27c-1.58.17-3.32,0-4.68.65-.7.33-.71,2.1-1,3.22l.8.56Zm3.47-6.35a10.38,10.38,0,0,0,1.69.12c.25-1,.38-2.1.54-3.16a10.4,10.4,0,0,0-4.07,2.47c-.36.36-.23,1.26-.19,1.9,0,.18.67.53.75.46a5.83,5.83,0,0,0,1.1-1.23A1.07,1.07,0,0,0,358.72,190.77ZM348.4,152.86l1.11-.33c-1.14-1.63.7-4.14-2.45-5.2Zm13,36.36,1.48.31.75-4-1.29-.28Z"/><path d="M373.57,211.48a10.78,10.78,0,0,1-2.09-2.17c-.82-1.37-1.18-3,.31-4.25,2-1.75,4.1-3.46,6.15-5.2,2.3-1.95,4.66-3.83,6.85-5.89a5,5,0,0,0,1-2.55c.31-1.52.36-3.1.7-4.62a2.07,2.07,0,0,1,1.23-1.4,2,2,0,0,1,1.65.91c1.45,3,2.89,6.11,4,9.27a3.73,3.73,0,0,1-.76,3.06c-1.7,2-3.12,4.44-6.25,4.65-.47,0-.95.88-1.3,1.42A13.52,13.52,0,0,1,373.57,211.48Zm14.89-24.75-1.14,0c1.2,4.25-2.57,7.6-1.54,12a25.8,25.8,0,0,0,5.19-4.19,2.42,2.42,0,0,0,.3-2.14C390.46,190.49,389.42,188.63,388.46,186.73ZM373.24,205l.62,1.08c3.1-1.52,6.27-2.92,9.24-4.65.59-.34.43-2,.62-3l-1.08-.68Zm3,2.05.84,2.36.67-.2-.6-3.88a25.4,25.4,0,0,0-3.29,3c-.16.21.76,1.26,1.18,1.92l.6-.27Z"/><path d="M304.89,12.68a11.53,11.53,0,0,1,2.7,1.13c.73.56,1.71,1.51,1.65,2.22-.08.92-1,1.79-1.68,2.63-.12.16-.48.14-.73.2-8.63,2.15-10.8.48-10.89-8.5,0-.74.56-2,1-2.13a51.86,51.86,0,0,1,7.56-.81c.28,0,.83,1.35.86,2.08A15.9,15.9,0,0,1,304.89,12.68Zm-.49-4.38c-1.77.2-3.45,0-4.75.65-.91.43-1.39,1.91-1.85,3-.09.22.76,1.14,1.27,1.23C301.13,13.55,304.15,10.94,304.39,8.3Zm2.23,10.29c.77-1.12,1.52-1.8,1.63-2.56.05-.37-1.1-1.3-1.68-1.28s-1.82,1-1.75,1.31C305,16.83,305.77,17.47,306.62,18.59Zm-3-5.69c-2.13,1.11-2.42,2.55-1.22,5.93l.73.1Z"/><path d="M85.31,9c1.18-.19,2.35-.48,3.54-.56A12.19,12.19,0,0,1,92,8.72c.17,0,.39,1.38.18,1.52a14.58,14.58,0,0,1-2.85,1.31c-.59.22-1.26.25-1.85.48-.8.31-1.55.73-2.32,1.11a16.34,16.34,0,0,1-.95-2.77,5.2,5.2,0,0,1,.43-1.87Z"/><path d="M99.59,11.62c-1.26,1.21-2.14,2.78-3.24,2.95-1.91.3-2.42-1.56-2.59-3.14-.24-2.24,1.77-5.59,2.57-4.92C97.65,7.61,98.32,9.5,99.59,11.62Zm-3.12,1.95a2.71,2.71,0,0,0,.72-4.17,1.78,1.78,0,0,0-1.59.1C94.84,11,94.38,12.56,96.47,13.57Z"/><path d="M309,12.47a26.13,26.13,0,0,1-2.62-3.57c-.09-.17,1.46-1.7,2-1.56a24.46,24.46,0,0,1,4.35,2.08Z"/><path d="M172.77,72.57c.07,2.57-1.46,4.68-3,4.44A3.83,3.83,0,0,1,168,75.54c.91-1.56,2-3,3.06-4.5Z"/><path d="M235.87,81.42c3.25-.07,3.85.8,3.51,4.08a4.34,4.34,0,0,0,1.32,2.81c1.77,1.93,2.63,4.11,2,6.62-.25.93-1.18,2.19-2,2.31s-1.84-.91-2.53-1.66a3.87,3.87,0,0,1-.72-2.16,5.44,5.44,0,0,0-2.77-4.29,5.52,5.52,0,0,1-1.85-4.28C232.94,83.41,233.53,81.28,235.87,81.42Zm3,2.14c-2-1.6-3.39-.29-4.21.94-.52.78-.36,3,.2,3.32a6.88,6.88,0,0,1,3.74,6.3,2.65,2.65,0,0,0,.63,1.4c.3.37.89.89,1.18.79a2,2,0,0,0,1.14-1.17,5.21,5.21,0,0,0-1.5-5.68C238.25,87.76,237.31,85.93,238.88,83.56Z"/><path d="M226.91,91.35l-13.84-.85c-.16,0-.45-.15-.44-.21a25.58,25.58,0,0,1,.53-5.32,2.09,2.09,0,0,1,3.36-1.15c1.81,1.23,3.09,2.17,4-.9.46-1.46,3.5-.77,4.32,1.21A62,62,0,0,1,226.91,91.35Zm-14-2.75.51.79,11.68.91c-.06-4.94-.93-6.54-3.51-6.74-1.2,3.53-2.1,3.75-6,1Z"/></g></g></svg>