<svg xmlns="http://www.w3.org/2000/svg" viewBox="0 0 440.39 203.24"><title>picto-plane</title><g id="Calque_2" data-name="Calque 2"><g id="Calque_1-2" data-name="Calque 1"><path d="M396.87,64.5c-9.74,8.66-22.72,9.22-34.91,15.35,3.3,1.6,5.38,3.12,7.69,3.65,11.34,2.57,21.2-.66,29.68-8.36,1.91-1.73,3.53-3.77,6-5.41a35.9,35.9,0,0,1-1.72,3.92C397.5,84.1,379.83,91.37,368.22,88a21.93,21.93,0,0,1-7.65-4.2c-3.52-2.94-3.22-5.67.78-7.81a51.49,51.49,0,0,1,9.28-3.58c5.48-1.67,11.06-3,16.54-4.67,2.37-.73,4.59-2,8.07-3.54-12.41-3.36-23.62-2.53-34.9-3.08,3.59-.44,7.19-.83,10.77-1.33,9.32-1.3,18.52-.94,27.31,2.6,9.92,4,19.79,8.15,29.51,12.62a32.36,32.36,0,0,1,8.41,6.25c6,5.7,5.38,11.28-2,15-5.88,3-12.15,5.78-18.57,7.06-15.94,3.17-32,5.57-48.12,8-18.43,2.79-36.75,5.71-54.55,11.72q-93,31.38-186.25,62A466.72,466.72,0,0,1,54.2,203a10.2,10.2,0,0,1-5.57-.37c6.37-1.73,12.7-3.59,19.11-5.16,46.4-11.43,91-28.19,135.85-44.51,24.66-9,49.38-17.84,74.25-26.21,16.75-5.64,33.76-10.56,50.76-15.39,17.33-4.92,35.31-5.8,53.1-7.85,14.15-1.63,28.3-3.31,41.91-7.85a45.77,45.77,0,0,0,8.14-3.49c4.54-2.58,4.76-5.1,1.06-8.67a17.25,17.25,0,0,0-2.59-2.09C419.79,74.72,409,68.73,396.87,64.5Z"/><path d="M261.33,76q21-3.68,42.07-7.36c4.73-.83,9.44-1.9,14.2-2.5a4.75,4.75,0,0,0,4.31-3.54c3.66-9.67,10.32-17,19.14-23.54-3,11.3-10.2,18.65-18,26l25.38-2.83.22,1.19c-6.9,1.83-13.73,3.94-20.7,5.43-27.84,5.95-55.64,12.11-83.61,17.35-12.49,2.34-25.33,2.9-38,3.9-9.81.77-17.55-3.05-23.07-11.46-3.43-5.23-7.35-10.13-11-15.05-14.05,5.88-27.4,11.71-40.93,17.06C118,85.87,104.55,91,89.87,92c7.32-4.62,15.24-7.9,23.31-11,8.47-3.2,16.72-7,25.09-10.45,8.14-3.38,16.3-6.7,24.46-10l-.16-1.25c-2.37.12-4.77.06-7.1.41-2.5.38-4.95,1.14-8,1.87,5.77-4.7,12.34-6.51,18.61-4.92a10.72,10.72,0,0,0,8-.92c9.2-4.67,18.45-9.24,28.28-14.14-2.67,5.51-7.53,8.36-12.16,11.3s-9.53,5.57-14.65,8.52c5.18,6,10.14,11.91,15.19,17.71a12.34,12.34,0,0,0,10.81,4.54c6.45-.51,12.91-1,19.38-1.25,2.43-.1,3.5-1.51,4.75-3.16,4.62-6.11,10.65-9.14,18.92-8.21l-16.57,9,.55,1.29,13.37-2c2-6.64,5.61-9.74,11.17-9.88,4.17-.11,6.55,1.76,8.36,6.55-5.27-1.35-10.55-2.79-14.91,2.61Z"/><path d="M237.56,131c-3.46,2.38-6.79,5-10.39,7.12A266.61,266.61,0,0,1,161.09,166c-5.06,1.39-10.24,2.44-16.33,1.13l92-37.67Z"/><path d="M212.7,117.07c30.73-3.95,61.29-10,93.34-7.55C293.08,116.84,224.52,122.4,212.7,117.07Z"/><path d="M180.36,99.1c2-.31,3.26-.52,4.52-.7a7.49,7.49,0,0,1,4,.24c-2.61,1.47-5.29,2.84-7.83,4.43a67.42,67.42,0,0,0-8.64,5.94c-4.05,3.54-3.82,6.14,1,8.25,5,2.18,10.38,3.56,15.6,5.28.64.21,1.3.4,2.31.7-7.17,2.66-19.37.84-24.8-3.48-3.86-3.07-4.43-7.36-.63-11s8.32-6.49,12.22-9.46c-2.73-3.34-6-7-8.81-10.89s-5.26-8.23-8.16-12.84C173.53,78.91,178.79,87.26,180.36,99.1Z"/><path d="M212,107.75c-2.11-1.84-4-3.75-6.16-5.3-2.76-2-4.68-1.34-6.13,1.69-2.83,5.92.26,11.64,6.75,12.49,1,.13,2,.31,3.26.5-3.28,3.7-7,4.21-11.38,1.81-5.36-3-8.36-13-5.52-18.43,2.23-4.28,7.07-5.88,12.42-4.1C211,98.3,213.22,101.93,212,107.75Z"/><path d="M32.89,199.16C20.75,198.62,4.81,189,0,179.47,13.58,182.42,23.71,189.94,32.89,199.16Z"/><path d="M354.89,58.48c.5-12.63,4.66-23.54,10.85-34.07C368.05,32,362.32,50.16,354.89,58.48Z"/><path d="M327.18,91.09c-1.89,1.44-4.34,2.39-4.87,4-.43,1.31,1.43,3.37,2.34,5.25-2.69,2-4.94,1.83-7.07-.9-1.91-2.45-1.29-6.35,1.42-8.89S323.91,88.1,327.18,91.09Z"/><path d="M339,0c7.51,2.87,13.18,6.2,15.48,14.11C346.84,12.12,342.2,7.6,339,0Z"/><path d="M313.8,95c-6.17,2.25-6.59,3.92-2.08,7.85-2.55,2.07-4.7,1.59-6.53-.74s-1.33-5.38.75-7.58C308.34,92,310,92,313.8,95Z"/><path d="M300.7,96.47c-5.41,3-5.59,4-1.45,7.36-2.27,2.43-4.34,1.26-6-.43-2.07-2.06-1.5-4.46.17-6.48C295.4,94.48,297.78,93.53,300.7,96.47Z"/><path d="M285.42,105.28c-2.82,1.12-5.07.78-5.77-1.81a6.86,6.86,0,0,1,1-5c1.46-2.16,3.66-1.95,5.84-.51C282.59,101.07,282.59,101.07,285.42,105.28Z"/><path d="M275,100.14c-3.25,1.59-5.45,3.13-1.48,6.06l-1.06.64c-1.27-.55-3-.79-3.65-1.75a4.76,4.76,0,0,1,.19-4C270,99.15,271.82,98.35,275,100.14Z"/></g></g></svg>