<svg xmlns="http://www.w3.org/2000/svg" viewBox="0 0 406.36 160.06"><title>picto-calendrier</title><g id="Calque_2" data-name="Calque 2"><g id="Calque_1-2" data-name="Calque 1"><path d="M61.75,105.33l.88,2.34.37-.1L92.49,9l.53.14c-.74,2.85-1.43,5.71-2.24,8.53-2.25,7.83-4.49,15.65-6.84,23.45C80.6,52.25,77.09,63.33,73.8,74.48c-2.88,9.79-5.57,19.64-8.31,29.47-3.25,11.65-6.43,23.32-9.71,35-.43,1.51.07,1.92,1.42,2,7.71.59,15.42,1.12,23.11,1.84,8.46.79,16.9,1.79,25.35,2.65,6.52.67,13,1.25,19.55,1.92,7.86.8,15.71,1.68,23.58,2.48,7.33.74,14.67,1.41,22,2.12,11.92,1.16,23.83,2.38,35.76,3.49,8.81.82,17.64,1.5,26.46,2.23,4.29.36,8.59.67,12.88,1,1,.09,1.66-.2,1.91-1.3,1.43-6.38,3-12.73,4.31-19.14s2.34-12.89,3.53-19.33q3.58-19.3,7.22-38.58c2-10.42,3.93-20.86,6.13-31.24,2-9.46,4.33-18.85,6.52-28.27.11-.45.18-.91.33-1.66L267.49,18l1.33,3-.37.29a11.62,11.62,0,0,1-1.94-2.05A2.39,2.39,0,0,0,264.22,18c-2.46-.12-4.91-.35-7.68-.56l.91,2.23-.25.32a21,21,0,0,0-1.67-1.42,6,6,0,0,0-2.3-1.32c-2.9-.36-5.82-.5-8.94-.74l.38,1.43c-.18,0-.36.14-.39.1-2.63-3-6.3-1.92-9.56-2.37a40.47,40.47,0,0,0-5.21,0l1,2.28-.34.34c-.67-.63-1.33-1.28-2-1.89-.42-.38-.86-1-1.32-1-3.52-.25-7-.39-11-.58L217.47,18l-.3.32A12.82,12.82,0,0,1,215,16.09a3,3,0,0,0-2.88-1.55c-3-.05-6.08-.27-9.52-.45l1.3,2.78-.38.36c-.72-.8-1.4-1.65-2.19-2.37a3.76,3.76,0,0,0-1.79-1.05c-2.62-.36-5.25-.61-7.88-.81a17.22,17.22,0,0,0-2.9.31l1.69,3.57-.42.34c-.7-.77-1.68-1.43-2-2.33a2.76,2.76,0,0,0-2.74-2c-2.86,0-5.71,0-8.76,0l.94,2.36-.22.29a16,16,0,0,0-2-1.87,6.11,6.11,0,0,0-2.56-1.15c-3-.32-6.08-.45-9.52-.67l1.35,2.46c-.53-.18-1-.19-1.09-.39-1.46-2.29-3.88-2.23-6.12-2.46-2.56-.27-5.14-.32-8.11-.49l1.71,3.12-.31.33a7.18,7.18,0,0,1-1.69-1.47,4.09,4.09,0,0,0-3.79-2c-3-.11-6.09-.4-9.69-.66l2.13,4a5.07,5.07,0,0,1-3.08-2.75c-.3-.49-.83-1.13-1.3-1.16-2.93-.23-5.88-.31-9.21-.46l1.11,2.31-.36.33c-.59-.56-1.17-1.14-1.78-1.69s-.95-1.12-1.46-1.15c-3.28-.25-6.57-.35-10.24-.51l1.34,3-.27.29a23.68,23.68,0,0,0-2.13-2,5.47,5.47,0,0,0-2.3-1.2,56,56,0,0,1-5.93-.8c.8,0,1.61.05,2.41,0,1-.08,2.63,0,2.86-.45a5.62,5.62,0,0,0,.28-3.71c-.7-2.37-2.61-3.3-5-2.85a5.25,5.25,0,0,0-4.38,5.43,30.38,30.38,0,0,0,1.5,5.43,5.38,5.38,0,0,1-1.13-.68A6.26,6.26,0,0,1,97.23,4,6.73,6.73,0,0,1,104.65.15a5.36,5.36,0,0,1,4.05,6.76c-.12.43-.27.84-.41,1.27l.56.17a11.14,11.14,0,0,0,.37-1.65,6.85,6.85,0,0,1,8-6.54c2.07.36,3.29,1.52,4.64,4.59C123.21,2,125.28.14,128.26.08a6.71,6.71,0,0,1,3.89,1.36,4.77,4.77,0,0,1,.55,7,8,8,0,0,1,0-1.28c.49-2.56-.63-4.92-2.69-5.65a5.46,5.46,0,0,0-6.24,2.85,6.55,6.55,0,0,0-.49,1.51c-.51,2.62,0,3.12,2.59,3.17,2,0,4,.12,6,.31,1.39.14,2-.28,2.2-1.73.55-4.65,6.1-6.85,9-5.29A5.75,5.75,0,0,1,146,9.49l.45.27a4.52,4.52,0,0,0,.76-1.29c.58-3.14,2-5.4,5.34-6.34a5.19,5.19,0,0,1,5.51,1.34,4.84,4.84,0,0,1,1.23,5.83c-.12.26-.2.54-.39,1l1.82.11c-.1-3.38.79-6.15,3.82-7.75,2.1-1.11,4.32-1.4,6.33.15a5.1,5.1,0,0,1,2.33,4.87,12.37,12.37,0,0,1-.92,2.48l-.42-.15A12.58,12.58,0,0,0,172,6.83a4.15,4.15,0,0,0-3.1-3.52,5,5,0,0,0-4.88,1.41,5.72,5.72,0,0,0-1.13,1.57c-1.53,3.1-.81,4.38,2.6,4.46,2.76.07,5.53,0,8.48,0C174.1,8,175,5.3,177.83,4a7.82,7.82,0,0,1,4.57-.62c3.5.71,4.64,3.65,3.52,8.16,1,.12,1,.12,1.35-1.23a6.51,6.51,0,0,1,5.14-5.22c4-.92,7.22,1.59,7.09,5.73,0,.45,0,.9,0,1.35l.47.16c.22-.62.48-1.23.65-1.86C201.39,7.59,203,5.65,206,5a5.22,5.22,0,0,1,5.22,1.32c1.56,1.61,2.36,3.53,1.41,5.81a2.88,2.88,0,0,0-.14.5s0,.1.08.22c1.32.47,1.39-.53,1.57-1.39a6.85,6.85,0,0,1,6.93-5.62,5.38,5.38,0,0,1,5.08,7c-.1.31-.15.64-.22,1l.58.24a9.16,9.16,0,0,0,.56-1.51c.73-3.94,2.55-5.95,6.09-6.62A5.4,5.4,0,0,1,239,9c1,1.83.77,3.58-.87,5.38a12,12,0,0,1,.11-1.28A4.83,4.83,0,0,0,236,7.54a5.17,5.17,0,0,0-6.13,1.83,6.87,6.87,0,0,0-.78,1.38c-1,2.42-.64,3.15,1.93,3.38,3.39.3,6.79.46,10.18.68.37-5.63,2-8.07,5.89-8.87A5.46,5.46,0,0,1,253.18,9a4.06,4.06,0,0,1-.92,5.24c.05-.55.05-.93.13-1.29a4.7,4.7,0,0,0-2-5.31,4.57,4.57,0,0,0-5.54.88A8.31,8.31,0,0,0,242.89,12c-.58,2.17.19,2.92,2.46,3,2.88.15,5.76.36,8.8.56,0-4.41,1.91-7.26,6.27-7.94,3.13-.49,4.91,1.46,6,3.77,1.54-.81,3-1.7,4.58-2.36,1.92-.81,3.65,0,5,1.27A5.1,5.1,0,0,1,277.68,16c-.23.72-1,1.37,0,2.16.19.15-.1,1-.24,1.49-1,3.8-2.06,7.6-2.74,11.65,1.1-1,2.69-1.88,3.17-3.14s-.14-3-.28-4.5l.51-.08,19.06,121.17c-2.14-.65-3.86-1.16-5.56-1.7-6.35-2-12.72-4-19-6.21-1.81-.63-2.85,0-3.94,1.19-2.43,2.73-4.83,5.49-7.37,8.11-4,4.09-8.27,7.87-11.92,12.21-1.54,1.83-2.79,1.83-4.69,1.65-10.4-1-20.8-1.9-31.2-2.81-7.29-.64-14.58-1.19-21.86-1.85-6.64-.6-13.28-1.26-19.91-1.93q-11.36-1.13-22.72-2.31l-19.19-2-22.36-2.32c-7.51-.79-15-1.67-22.53-2.35-9.52-.87-19-1.58-28.58-2.36-.75-.06-1.49-.15-2.54-.26l3.45-13.2-2.87,1.19q-12,5-24,10.06c-2.38,1-4.77,2-7.06,3.18-3.17,1.62-6.66,1.41-10,1.92-3.61.54-7.25.88-10.88,1.19a7.79,7.79,0,0,1-2.41-.6,6.3,6.3,0,0,1,.63-2.18c2.86-3.67,5.82-7.26,8.72-10.89,1.14-1.42,2.13-3,3.38-4.3a10.22,10.22,0,0,1,3-2.08c4.84-2.31,9.74-4.52,14.59-6.8,5.42-2.54,10.79-5.21,16.25-7.65,4.35-1.94,8.81-3.62,13.22-5.42C60.54,105.93,61.27,105.55,61.75,105.33Zm231,21.52c-2.22,1.32-4.4,2.73-6.68,3.95-3.4,1.82-6.88,3.51-10.64,5.42,2.79.93,5.21,1.81,7.68,2.5a2.57,2.57,0,0,0,1.82-.69c2.86-2.3,5.67-4.68,8.69-7.19l-.9-4-.84-7.15-27.28,14.06.58.1c2.14.31,4.42.28,6.39,1a4.67,4.67,0,0,0,4.44-.26c4.36-2.45,8.73-4.88,13.18-7.17A12.28,12.28,0,0,1,292.71,126.85ZM33.37,134.43c-.27-1.23-.38-2-.62-2.79-1-3.3-3.34-5.57-6-7.65-1.19-.93-1.85-.83-2.85.3,4.75,3.69,5.86,8.77,5.51,14.46a4.65,4.65,0,0,0,.82-.15c8-3.34,16-6.79,24-10a6.62,6.62,0,0,0,4.65-5.72c.19-1.39,1-2.78.84-4.11A16.11,16.11,0,0,0,55.59,109l-5.26,2.56c4.27,4.71,6,8.56,4.65,11.08a20.19,20.19,0,0,0-6.07-10.45l-4.34,2.07c4.31,4.37,6.61,11.06,4.64,14-.1-.62-.19-1-.24-1.47-.54-4.25-1.82-8.17-5-11.19a1.55,1.55,0,0,0-1.29-.36c-1.08.38-2.11.94-3.18,1.44,4.51,5,6,10.55,3.36,13.52a13.74,13.74,0,0,0-4.72-12.83l-4.21,2c2.27,3.27,5.24,6,4.86,10.39l-5.92-9.87-5.63,2.66C32.68,126.82,35,131.08,33.37,134.43ZM261.76,94.54,286,82.91l-1.7-12.27c-.49.18-.77.27-1,.39l-17.78,8.24c-.31.14-.79.32-.85.57-.49,2.2-.91,4.41-1.43,7,.9-.32,1.34-.43,1.74-.63q6.78-3.42,13.55-6.88c1.91-1,3.73-2.19,6.44-2a15.91,15.91,0,0,1-1.53,1c-6.19,3-12.39,6-18.57,9-.71.35-1.77.71-2,1.28A49.44,49.44,0,0,0,261.76,94.54Zm28.9,18.68c-1.94,1-3.65,1.89-5.38,2.75q-7.29,3.59-14.6,7.15c-4.72,2.28-9.43,4.57-14.2,6.74-1.33.6-2,1.31-1.67,2.76,2,.21,3.92.5,5.86.59a7,7,0,0,0,3.21-.45c3.08-1.46,6.06-3.16,9.11-4.71,5.83-2.95,11.69-5.82,17.5-8.81a2.19,2.19,0,0,0,.93-1.7A34.24,34.24,0,0,0,290.66,113.22Zm-35.56,16.3c4.6-2.24,8.85-4.22,13-6.37,7-3.58,13.72-7.52,21.12-10.17.46-.17,1.14-.74,1.12-1.09-.1-1.77-.4-3.53-.64-5.43-6.59,3.38-12.85,6.61-19.14,9.81-4.35,2.21-8.73,4.36-13.07,6.6a3,3,0,0,0-1.43,1.55C255.66,125.93,255.47,127.52,255.1,129.52Zm-5.78,27.8,19.48-21.39c-1.26-.22-2.15-.42-3.07-.53-3.33-.4-6.68-.68-10-1.18-1.17-.18-1.61.14-1.83,1.2C252.4,142.66,250.88,149.9,249.32,157.31ZM14.13,128.78c-2.21,2.79-4.27,5.67-6.64,8.28-1.78,2-2.66,3.82-.94,6.16.29.4.84.92,1.23.89,4-.35,8-.76,11.93-1.28.51-.07,1.34-.85,1.32-1.28a22.09,22.09,0,0,0-.68-5C19.44,133.18,16.92,131,14.13,128.78Zm273-38.9c-3.62,1.93-7,3.8-10.39,5.5-5.27,2.6-10.61,5.07-15.9,7.62a1.32,1.32,0,0,0-.7.72c-.5,2.39-.94,4.78-1.46,7.45a7.86,7.86,0,0,0,1-.37l15.54-9.47c3.22-2,6.38-4,9.71-5.79,2.8-1.47,2.9-1.29,2.46-4.44C287.27,90.77,287.2,90.43,287.11,89.88Zm-1-5.5c-.64.26-1,.37-1.3.52L262.38,95.38c-.26.12-.65.27-.69.47-.47,1.94-.89,3.89-1.41,6.27,1.14-.47,1.68-.66,2.2-.92q11.69-5.82,23.36-11.67c.44-.22,1-.8,1-1.18A35.46,35.46,0,0,0,286.09,84.38Zm2.78,16.72c-2.6,1.46-5,2.87-7.41,4.16-3.33,1.76-6.73,3.4-10.08,5.13q-6.59,3.4-13.14,6.88a1.84,1.84,0,0,0-.88,1c-.31,1.17-.49,2.39-.75,3.78a7.07,7.07,0,0,0,.84-.28c5.58-2.93,11.14-5.89,16.74-8.78,4.39-2.26,8.76-4.58,13.28-6.56,1.75-.77,2.17-1.73,1.94-3.34A17.46,17.46,0,0,0,288.87,101.1Zm-1-5.87-3,1.8c-8,4.8-16,9.73-24.17,14.3a5,5,0,0,0-2.86,5,20.44,20.44,0,0,0,2.21-.9c6.08-3.35,12.13-6.76,18.22-10.09a90.7,90.7,0,0,1,8.18-4.1c2.52-1.06,2.57-.89,1.81-3.63A22.47,22.47,0,0,1,287.85,95.23Zm-5.13-33.89a8.84,8.84,0,0,0-1,.54Q274,67.6,266.32,73.35a2.14,2.14,0,0,0-.77,1.1c-.27,1.13-.42,2.29-.69,3.91l19-9.09ZM22.27,142.05c2-.87,3.69-1.58,5.35-2.41a1.57,1.57,0,0,0,.62-1.19,21.93,21.93,0,0,0-.18-4.37,18,18,0,0,0-5.52-9.51l-7.32,3.48C20.43,131.3,22.54,135.92,22.27,142.05ZM281.9,55.65c-2.74,1.57-5.33,3-7.91,4.54-1.73,1-3.44,2-5.15,3.06-.44.27-1.12.53-1.21.9-.6,2.54-1.07,5.1-1.57,7.66l.51.27c1.88-1.46,3.76-2.93,5.65-4.38,3.13-2.39,6.29-4.74,9.4-7.16a2,2,0,0,0,.74-1.42A30.11,30.11,0,0,0,281.9,55.65ZM280.65,47l-9.06,6.69c-.74.55-1.92,1-2.14,1.69-.68,2.23-1,4.57-1.51,7.13,1.67-1,3-1.69,4.3-2.46q4.51-2.69,9-5.43c.26-.16.65-.51.61-.72C281.5,51.64,281.09,49.44,280.65,47ZM120,8.62c.15-.62.26-1.13.39-1.64A4.46,4.46,0,0,0,114.8,1.5a5.78,5.78,0,0,0-4.09,5.74,2,2,0,0,0,1.38,1.31C114.68,8.69,117.27,8.62,120,8.62Zm144.8,8c.21-.86.31-1.49.53-2.08.71-1.92-.31-3.31-1.49-4.55a3.73,3.73,0,0,0-4.4-.72A6.06,6.06,0,0,0,255.63,14c-.22,1.09,0,1.83,1.33,1.93C259.53,16.09,262.1,16.35,264.79,16.59Zm9.89,1c.21-.08,1.17-.11,1.51-.59,1.6-2.28,0-6.07-2.64-6.66-3.11-.69-6.63,2.08-6.58,5.26a1.53,1.53,0,0,0,.87,1.17C269.92,17.11,272,17.3,274.68,17.6Zm-93.16-6c.94,0,1.71.05,2.47,0,.35,0,1-.28,1-.49a9.46,9.46,0,0,0,.13-3.74,4.17,4.17,0,0,0-5-2.91c-2.57.65-4.77,3.39-4.41,5.65a1.61,1.61,0,0,0,1.06,1.05C178.39,11.39,180,11.47,181.52,11.6Zm-23.23-1.53c0-1.23.34-2.75-.07-4-.81-2.49-2.94-3.38-5.37-2.67s-4.38,3.44-4,5.61a1.71,1.71,0,0,0,1.25,1C152.7,10.12,155.29,10.07,158.28,10.07Zm50,2.93c1.07-.42,2.81.81,3.24-1.12a5.61,5.61,0,0,0-.24-3.21,4,4,0,0,0-5.21-2.44c-2.31.66-4.38,3.34-4.06,5.39a1.41,1.41,0,0,0,1,.91C204.76,12.76,206.53,12.85,208.32,13Zm-67-3.25a11.61,11.61,0,0,0,2.41,0A2,2,0,0,0,145,8.77c1-2.55-1.31-5.71-4-5.63a5.75,5.75,0,0,0-5.5,4.81c-.17.93,0,1.45,1.1,1.49C138.23,9.5,139.93,9.65,141.33,9.75Zm80.46,3.91c3.5.1,4.47-1.36,3-4.09a4.17,4.17,0,0,0-5-2.33c-2.33.59-4.4,3-4.26,5a1.51,1.51,0,0,0,1.06,1C218.42,13.47,220.25,13.55,221.79,13.66Zm-25.9-1.5c2.58.15,3.29-1,2.11-3.33s-2.64-3.11-4.81-2.75-4.38,2.61-4.51,4.66a1.54,1.54,0,0,0,1,1.1C191.76,12,193.83,12.07,195.89,12.16Zm73.76,41,.38.23c1.29-1.08,2.56-2.18,3.89-3.22A29.49,29.49,0,0,1,279,46.46c1.63-.77,1.64-1.69,1.32-3-.16-.66-.25-1.34-.38-2-3,2.13-5.92,4.18-8.82,6.26a1.33,1.33,0,0,0-.42.73C270.36,50,270,51.58,269.65,53.17Zm9.5-18.26c-1.27,1.09-2.32,2-3.4,2.91-2.55,2.12-4.85,4.36-4.37,8.14q4.07-2.92,8.11-5.82a.6.6,0,0,0,.25-.44C279.56,38.15,279.36,36.61,279.15,34.91Zm14.6,97.7-8.28,6.65c2.3,1.49,3.11,1.36,4.86-.44,1.12-1.14,2.32-2.2,3.77-3.56Zm-232.92-17c.72-2.76,2.52-5.82-.62-8.76l-2.82,1.38Zm212-76.82a35.17,35.17,0,0,1,4.63-4.32c1.93-1.27,1.12-2.71,1.11-4.22C274.9,32,272.72,34.69,272.85,38.76Zm22.34,103.77-.77-5.65-4.53,4ZM1.7,144.38,2,145a11.57,11.57,0,0,0,3.23-1.05c.26-.17-.37-1.7-.7-3Z"/><path d="M97.77,24.34c-.82,3.49-1.56,7-2.47,10.46Q91.05,51,86.69,67.11c-1.9,7-4,13.95-5.87,21-2.13,8-4.08,16-6.13,24-1.19,4.63-2.39,9.25-3.67,13.85-.33,1.2,0,1.57,1.17,1.69,6.16.61,12.32,1.29,18.48,1.88a1.55,1.55,0,0,0,1.27-.75c1.9-6.38,3.73-12.79,5.56-19.2a2.79,2.79,0,0,0,0-.69l-19.11-2.19,0-.49,8.88.54c3.18.19,6.36.37,9.54.6,1.09.08,1.57-.39,1.86-1.41q3.36-12.09,6.8-24.16c.24-.85.59-1.67.84-2.52s0-1.48-1.14-1.61c-6-.66-12-1.41-18-2.13-.09,0-.16-.14-.62-.55,3.26.2,6.11.34,9,.56q5.12.4,10.22.93a1.5,1.5,0,0,0,1.84-1.19q3.52-12.34,7-24.67a8.5,8.5,0,0,0,.15-.86l-20.57-2,0-.09c3,0,5.93-.08,8.88,0,3.72.12,7.43.37,11.14.58,1.16.07,1.42-.66,1.71-1.6,2.09-6.66,4.23-13.31,6.36-20,0-.15.2-.26.31-.39l.45.13-6.2,22c2.71.16,5.2.34,7.69.46,3.77.18,7.54.3,11.3.52.85,0,1.18-.06,1.46-1,1.88-6.11,3.87-12.18,5.84-18.26.26-.81.63-1.58.94-2.37l.44.14-6.11,21.47c1.76.18,3.3.39,4.86.48,4.95.29,9.9.5,14.85.81,1.29.08,1.8-.37,2.18-1.64,2-6.58,4.12-13.12,6.21-19.67,0-.08.18-.13.72-.49l-5.93,22c2,.17,3.81.35,5.61.46,4.13.27,8.25.47,12.38.77,1.21.09,1.72-.27,2.06-1.5,1.7-6.24,3.52-12.45,5.32-18.66a8.29,8.29,0,0,1,.47-1.06l.42.12c-.37,1.63-.71,3.26-1.11,4.87q-1.83,7.47-3.71,14.93c-.23.91-.41,1.6.94,1.66,7.37.33,14.74.7,22.11,1.05a5.54,5.54,0,0,0,.89-.08l5.9-21.76.68.16-4.92,21.56a12.58,12.58,0,0,0,1.82.4c6.66.39,13.32.72,20,1.17,1.64.11,2.21-.5,2.59-2,1.57-6.32,3.28-12.61,5-18.91a4.81,4.81,0,0,1,.45-.9l.42.12c-.32,1.51-.62,3-1,4.52q-1.75,7.77-3.51,15.53c-.22,1-.43,1.89,1.09,2q10.16.7,20.3,1.49A1.79,1.79,0,0,0,257.7,55c1.52-6.73,3.12-13.44,4.68-20.16a12.31,12.31,0,0,0,.14-1.41c-3.6-.2-7.11-.36-10.62-.58-7.89-.5-15.77-1.08-23.66-1.52-4.94-.27-9.89-.28-14.83-.51-3.18-.15-6.35-.53-9.53-.71-6.48-.37-13-.64-19.44-1-4.91-.29-9.81-.72-14.72-1-1.17-.08-2.35.1-3.52,0-4.46-.27-8.91-.59-13.36-.9-9.34-.65-18.68-1.33-28-2-6-.41-12-.76-18-1.15a1.37,1.37,0,0,1-1.13-.62c.92.07,1.84.16,2.76.21,12.2.6,24.41,1.18,36.61,1.8,8.43.43,16.86.91,25.29,1.37l32.89,1.8,32.72,1.78q13.26.71,26.51,1.4c1.41.07,2.12.31,1.69,2.09-2.74,11.47-5.33,23-8,34.47Q250.82,91.18,245.45,114c-2.26,9.59-4.59,19.16-6.79,28.76-.32,1.42-1,1.67-2.19,1.54-6.63-.69-13.26-1.4-19.89-2-7.11-.67-14.22-1.24-21.34-1.88s-14.45-1.35-21.68-2c-5.76-.52-11.52-1-17.28-1.5-7.17-.66-14.33-1.36-21.5-2-6.75-.63-13.51-1.23-20.27-1.89-8.69-.85-17.38-1.76-26.07-2.62q-8.54-.84-17.09-1.59c-2.33-.21-2.36-.17-1.73-2.5q6.92-25.71,13.85-51.42Q90,50.59,96.63,26.33c.2-.73.48-1.43.72-2.14ZM257.08,57.71a5.26,5.26,0,0,0-.87-.24c-6.95-.38-13.9-.71-20.84-1.15-1.58-.1-2.14.46-2.47,2-1.58,7.13-3.29,14.24-4.95,21.36-.5,2.15-1,4.3-1.54,6.66l9.72,1c4.1.41,8.21.82,12.31,1.25a1.48,1.48,0,0,0,1.85-1.35c1.36-6,2.78-12.05,4.17-18.08C255.35,65.31,256.21,61.53,257.08,57.71Zm-90.16,54.77,6.62.43c5.65.35,11.3.71,16.95,1,.86,0,2,.57,2.39-.79,1.22-4.66,2.47-9.32,3.55-14,.76-3.26,1.24-6.58,1.9-9.87.26-1.3.65-2.57,1-4-3.17-.33-6.08-.71-9-.91-4.88-.33-9.77-.48-14.64-.83-1.07-.08-1.46.2-1.7,1.19q-2.1,8.67-4.28,17.31C168.84,105.42,167.91,108.75,166.92,112.47Zm39.53-57.64a8.86,8.86,0,0,0-1.08-.22c-7.18-.35-14.35-.67-21.53-1.07-1.43-.08-1.92.48-2.25,1.8-1.23,5-2.59,10-3.89,15.07-1,3.81-1.93,7.63-2.93,11.62.92.14,1.72.32,2.52.38,6.7.49,13.41.9,20.11,1.48,1.84.16,2.5-.58,2.86-2.2,1.14-5.11,2.39-10.2,3.57-15.31C204.71,62.6,205.55,58.82,206.45,54.83Zm25.45,1.49a8.72,8.72,0,0,0-1.13-.24c-7.12-.46-14.25-.88-21.37-1.39-1.36-.1-1.53.62-1.76,1.63q-2.19,9.48-4.46,18.94c-.69,2.9-1.41,5.8-2.17,8.91,7.66.63,15.11,1.22,22.57,1.87,1.42.12,1.68-.76,1.92-1.77C227.61,75,229.73,65.79,231.91,56.32ZM194,113.91a5.3,5.3,0,0,0,.91.29c7.29.54,14.59,1.06,21.88,1.62,1.26.1,1.58-.56,1.81-1.61,1.55-7,3.15-14,4.73-21,.42-1.87.82-3.73,1.28-5.8-3.19-.24-6.06-.44-8.92-.69-4.53-.39-9.05-.78-13.57-1.24-1.22-.12-1.67.37-1.91,1.48q-1.47,6.82-3.05,13.62C196.18,105,195.11,109.38,194,113.91ZM219.55,116l12.34,1.1c3.17.28,6.35.54,9.51.85a1.57,1.57,0,0,0,2-1.46c.25-1.33.58-2.65.9-4,1.73-7.15,3.45-14.31,5.23-21.45.34-1.37-.07-1.73-1.43-1.81-3.88-.22-7.76-.59-11.63-.92-3-.25-6-.58-9-.75a2,2,0,0,0-1.59.91c-.63,2-1.08,4.1-1.54,6.17-.91,4.09-1.78,8.18-2.69,12.27C221,109.95,220.27,112.91,219.55,116ZM151.12,81.38c-6.93-.54-13.62-1.05-20.3-1.6-1.16-.1-1.64.34-2,1.47-2.16,7.6-4.39,15.17-6.62,22.75-.46,1.56-1,3.11-1.47,4.72a3.16,3.16,0,0,0,.77.31c6.71.48,13.42.92,20.12,1.43,1.3.1,1.71-.49,2-1.64,1-4,2.22-8.06,3.32-12.1C148.36,91.68,149.71,86.64,151.12,81.38ZM160.48,136a4.55,4.55,0,0,0,.86.29c8.23.65,16.46,1.28,24.69,1.94,1,.08,1.1-.41,1.28-1.21.66-3,1.48-5.94,2.16-8.93,1-4.18,1.83-8.37,2.79-12.83l-7.19-.44c-5.7-.34-11.4-.66-17.1-1a1.54,1.54,0,0,0-1.84,1.4c-1.06,4.23-2.2,8.44-3.34,12.65C162.06,130.58,161.27,133.28,160.48,136Zm-16-25.51c.61.1,1.12.23,1.63.27,6.05.45,12.11.87,18.16,1.36,1,.08,1.51-.18,1.76-1.2.84-3.38,1.78-6.73,2.61-10.1,1.33-5.37,2.58-10.77,3.9-16.14.25-1,0-1.6-1.09-1.69-5.75-.46-11.51-.91-17.26-1.42A1.76,1.76,0,0,0,152,83.18c-.64,2.69-1.43,5.34-2.16,8C148.08,97.55,146.32,103.9,144.49,110.52Zm14.74-58.2c-.3-.18-.44-.35-.59-.35-6.41-.32-12.83-.61-19.24-1-1.22-.07-1.63.55-1.93,1.57-2.07,7-4.18,14-6.27,21-.43,1.44-.79,2.9-1.23,4.5,1.09.18,1.94.38,2.81.46,5.58.47,11.16.88,16.73,1.4,1.51.14,2.25-.3,2.65-1.79,1.73-6.42,3.57-12.81,5.34-19.22C158.11,56.71,158.66,54.5,159.22,52.32ZM153.1,79.73c.37.2.52.34.68.36l18.5,1.67c1.14.1,1.33-.69,1.54-1.54,2.12-8.46,4.22-16.93,6.41-25.38.33-1.26,0-1.57-1.19-1.64q-8.3-.49-16.59-1.05a1.54,1.54,0,0,0-1.9,1.32c-.86,3.31-1.79,6.59-2.73,9.88C156.26,68.78,154.68,74.21,153.1,79.73Zm-53.67,27.8c6.24.4,12.17.75,18.09,1.19a2.15,2.15,0,0,0,2.64-1.83c2.43-8.67,4.95-17.32,7.42-26a7.77,7.77,0,0,0,.14-1.35c-6.26-.55-12.35-1.11-18.45-1.58a1.76,1.76,0,0,0-1.43.8A56.53,56.53,0,0,0,106,84.31c-1.57,5.56-3.06,11.14-4.62,16.71C100.79,103.09,100.14,105.15,99.42,107.53Zm118.41,9.73c-7.9-.63-15.59-1.27-23.29-1.81-.42,0-1.17.69-1.3,1.18-1.05,4.1-2,8.25-3,12.36-.76,3.07-1.62,6.11-2.41,9.05.23.2.27.27.31.28l23.21,2.28c1,.1,1.27-.32,1.47-1.26.65-3,1.51-5.93,2.18-8.92C216,126.06,216.89,121.68,217.83,117.26Zm-4.38,23.36a9.81,9.81,0,0,0,1.3.32l19.54,1.76c2.81.25,2.88.29,3.58-2.5,1.48-5.94,2.89-11.9,4.29-17.86.26-1.11.34-2.25.5-3.32l-23.37-1.83Zm-105-64c6.14.43,12.08.79,18,1.28,1.57.13,2.18-.47,2.59-1.9,1.76-6.18,3.63-12.33,5.43-18.5.64-2.18,1.19-4.38,1.82-6.73-6.35-.36-12.45-.69-18.55-1.06-1-.06-1.4.41-1.67,1.35-1.83,6.34-3.73,12.67-5.61,19C109.86,72.17,109.2,74.29,108.49,76.61Zm20.67,39.58.18.22-8.37,9-3.5-5.58-3.78,11.64a4.93,4.93,0,0,0,.84.27c6.28.59,12.55,1.22,18.84,1.75,3.2.27,3.21.19,4.08-2.91,1.54-5.45,3.09-10.89,4.6-16.34.66-2.37.57-2.36-1.94-2.52q-9.18-.6-18.35-1.34c-1.1-.09-1.64.24-1.92,1.28-.53,2-1.13,4-1.67,6a1.36,1.36,0,0,0,.05,1c.95,1.39,2,2.74,2.95,4.11Zm30.54,19.76,5.64-22.33c-1.13-.06-1.93-.09-2.73-.16-5.75-.45-11.5-.89-17.24-1.37a1.44,1.44,0,0,0-1.78,1.2c-1.89,6.38-3.84,12.74-5.76,19.12a9.44,9.44,0,0,0-.18,1.47Zm-46.88-4.37,6.11-20.89a3.86,3.86,0,0,0-.69-.33c-6-.48-11.94-.92-17.9-1.44-1.18-.1-1.5.48-1.78,1.44-1.15,3.89-2.37,7.77-3.57,11.65-.76,2.44-1.53,4.88-2.38,7.59Z"/><path d="M347.21,108.16a31.74,31.74,0,0,0-.28,4.4c0,.46.89,1.16,1.46,1.26,4,.72,8,1.55,12.05,1.9,4.51.39,9.06.33,13.59.46.73,0,1.47,0,2.55,0-2.94,2.47-21.21,1.14-29.72-1.91-.06.6-.15,1.14-.16,1.68,0,1.42.06,2.84-.06,4.25-.37,4.23-.32,3.71,3.59,4.38,4.64.79,9.37,1.11,14.07,1.46a78.87,78.87,0,0,0,24.34-2.35c.52-.12,1-.21,1.56-.29.1,0,.21.07.32.11-3.56,3.5-30.63,6.54-43.54,1.2-1.23,2.22-.79,3.21,1.76,3.79A50,50,0,0,0,362.24,130a33,33,0,0,1,3.7.24c-2.38,2-15.74.92-19.64-1.5,0,.87.06,1.62,0,2.36-.11,1.14.23,1.72,1.49,1.85,4.69.5,9.35,1.27,14.05,1.6,4.87.34,9.76.36,14.64.39,2.17,0,4.35-.33,6.52-.5a3.58,3.58,0,0,1,2,.27,91.23,91.23,0,0,1-38.72-1,32.58,32.58,0,0,0-.2,4.27c0,.41.92,1,1.48,1.11,4,.57,7.95,1.09,11.94,1.49a93.84,93.84,0,0,0,9.88.64c6.84,0,13.7-.07,20.4-1.77a6.3,6.3,0,0,1,.65-.1l.18.53a19.83,19.83,0,0,1-3.28,1.21c-10.72,2-21.49,1.72-32.25.43-3-.35-5.86-1.07-9.11-1.68a12.58,12.58,0,0,0,.08,3.16c.12.49,1.11,1,1.76,1.08,4.37.68,8.74,1.54,13.13,1.79,5.38.31,10.8.07,16.21.07-.91,1.09-3.8,1.53-10.24,1.4-3.53-.07-7.07-.19-10.57-.57s-7-1.13-10.49-1.71c-.31,3.06.29,4.4,4.21,5.81,7.79,2.79,15.91,3.24,24.11,2.67,4.68-.32,9.29-1,13.57-3,3.27-1.55,5.64-3.67,5.61-7.78-.09-13,0-26,0-39,0-5.32,0-10.64,0-16,0-1,0-2,0-2.79-3,1.13-5.84,2.45-8.8,3.26a52.25,52.25,0,0,1-21.2,1.12,91.71,91.71,0,0,1-10-2A14.35,14.35,0,0,1,349,85.26c-3.4-2.33-1.77-6.25,1.29-8.26,1.38-.91,2.88-1.63,4.26-2.53a1.61,1.61,0,0,0,.72-1.19c-.82-5-1.72-10-2.58-15-.2-1.14-.76-2.06-1.94-1.65-.45.16-.78,1.45-.71,2.17.46,4.4,1.06,8.77,1.57,13.16a20.94,20.94,0,0,1,0,2.43l-.49.09a5.54,5.54,0,0,1-.41-1.11c-.71-4.9-1.46-9.79-2.05-14.71-.34-2.79.08-3.2,3.16-3.86-.18-1.33-.4-2.7-.55-4.07a6,6,0,0,1,3.12-5.9c2.62-1.22,5.38-.95,7,1A7,7,0,0,1,363,49.35c.68,5.56,1.16,11.14,1.73,16.72.19,1.93.41,3.85.61,5.8,2.1,0,4.15.06,6.18-.06.33,0,.82-.76.9-1.22,1-5.69,1.87-11.4,2.85-17.1.55-3.22,1.22-6.43,1.9-10,1.87,1.52,3.39,2.79,4.94,4,4.17,3.32,4.17,3.32,3,8.53s-2.35,10.23-3.56,15.34c-.25,1.05-.22,1.62,1.12,2a51.51,51.51,0,0,1,8,2.85,13.28,13.28,0,0,1,3.8,3.07c.8.85.8,1.94.5,3.27a27.09,27.09,0,0,0-.27,6.32c0,.31.68.8,1.1.88,4.85,1,7.55,5.16,7.64,10a48.88,48.88,0,0,1-.6,7.55c-.41,3-1,5.91-1.25,8.93.66-3,1.22-6,2-8.9A29.42,29.42,0,0,0,404.73,97a8.23,8.23,0,0,0-4.16-6.6c-1.78-1.1-3.54-2.23-5.59-3.52,6.53.24,12,6.25,11.33,12.51-.38,3.66-1.49,7.25-2.26,10.88-.34,1.61-.54,3.26-1,4.83-1.38,4.56-2.75,9.12-4.38,13.59-.44,1.22-1.8,2.08-2.66,3.18a4.12,4.12,0,0,0-1.06,2c-.2,3.3-.23,6.6-.34,9.9-.15,4.18-2.82,6.38-6.27,8a40.39,40.39,0,0,1-15.45,3.41,65.1,65.1,0,0,1-20.82-2,28.9,28.9,0,0,1-6-2.93,3.66,3.66,0,0,1-1.71-3.65c.22-4.53.47-9.07.6-13.6s0-8.84.23-13.26c.23-5.45.64-10.89,1-16.34s.7-11,1.05-16.56a1.6,1.6,0,0,1,.46-1.18c0,1.91.1,3.82,0,5.72-.09,1.26.28,1.87,1.53,2.05,5.78.84,11.53,2.11,17.33,2.44s11.87-.24,17.81-.41a.8.8,0,0,1,.69.25c-6,2.22-12.34,2.17-18.56,1.59s-12.61-.74-18.87-3.58c-.08,2.94-.21,5.57-.14,8.2,0,.4.89,1,1.43,1.13,5.65.88,11.32,1.6,17,2.5,5.29.85,10.59.43,15.88.31a84.77,84.77,0,0,0,9.12-1.16,1,1,0,0,1,.83.18c-7.06,2.86-14.53,2.7-21.9,2.36s-15-.78-22.14-3.61a5.43,5.43,0,0,0-.29,4.42ZM372,73.23c-2.09,0-3.9-.05-5.7,0a1.36,1.36,0,0,0-.88,1c0,2,.15,4.1.25,6.15l.33,6.93-.63.06-3.08-30.87-8.4,1c1.52,9.32,3,18.74,4.66,28.15a2.61,2.61,0,0,0,1.65,1.64,40,40,0,0,0,5.75.86c3.49.32,3.52.29,4.1-3.09C370.71,81.3,371.31,77.47,372,73.23ZM377,53l-6.61,35.63c4.52,1.16,5.73.47,6.75-3.92.09-.4.15-.81.25-1.21q1.76-7.39,3.52-14.79,1.38-5.84,2.74-11.69c.22-.94.15-1.67-1-2C380.74,54.49,378.93,53.74,377,53ZM395.75,130l-.39-.46a56.28,56.28,0,0,0,2.76-5.38,26.9,26.9,0,0,0,1.19-5c.88-4.8,1.91-9.59,2.47-14.44a25,25,0,0,0-.46-8c-.73-3.37-4-6.13-6.47-6.19v40.8l.62.19,2.93-4.13ZM377.37,88.28c3.47-.62,6.53-1,9.53-1.74a17,17,0,0,0,4.87-1.95c3.21-1.95,3.36-4.28.44-6.28a23.55,23.55,0,0,0-10-3.82c-1.16-.17-1.66.24-1.92,1.43-.68,3.1-1.53,6.16-2.29,9.25C377.81,86,377.66,86.87,377.37,88.28Zm-19.65-1.16-2.19-11.58c-2.66,1.31-5,2.4-6.57,4.75a2.38,2.38,0,0,0,.28,3.36C351.5,85.66,354.22,86.63,357.72,87.12ZM355.5,50.94l.1.32a47.77,47.77,0,0,0,4.63-1.4c1.33-.54,1.41-1.56.51-2.69a4.66,4.66,0,0,0-7.1.17,12.74,12.74,0,0,0-1.11,3.09l2.79.51Zm-2.59,1.56c.39,3.26.61,3.49,3.46,3.4,1.47,0,2.93-.21,4.39-.25,1.08,0,1.46-.54,1.31-1.57s-.3-2.32-.47-3.67C359.07,52.57,356,52.53,352.91,52.5ZM378.59,47c-2,3.93-1.29,5.48,2.76,6.4a2,2,0,0,0,.69.12c.67-.1,1.64,0,1.94-.44a1.67,1.67,0,0,0-.42-2.47Z"/><path d="M348.44,98.92c14,2.12,28,3.34,42-.37l.19.49a14.85,14.85,0,0,1-2.66,1.22,72.53,72.53,0,0,1-20,2.08c-4.88-.2-9.75-.75-14.6-1.36a28.43,28.43,0,0,1-5.06-1.59Z"/><path d="M390.85,90c-5.09,4.91-37.08,5.3-42.7-2C362.06,93.12,376.15,93.66,390.85,90Z"/><path d="M389.24,118.33c-3.55,4.64-35.69,4.35-41.78.54C361.26,120,375.08,122.3,389.24,118.33Z"/><path d="M347.34,108c6.28,1,12.54,2.25,18.86,2.79,5.13.44,10.34,0,15.52-.13a58.34,58.34,0,0,0,6.09-.82l.2.45a11.57,11.57,0,0,1-2.34,1,86.44,86.44,0,0,1-33.88-1,24,24,0,0,1-4.59-2.07Z"/><path d="M100.57,35.81,104,41l10.77-8.22.36.38a5.33,5.33,0,0,1-.64.84c-3.16,2.81-6.34,5.6-9.5,8.41-1,.88-1.68.84-2.32-.4s-1.48-2.41-2.1-3.67a11.62,11.62,0,0,1-.61-2.29Z"/><path d="M239.31,45.55l4.12,4.84,8.93-10,.54.46-9.27,12.05c-2.08-2.32-4.16-4.18-4.81-7Z"/><path d="M138,36.91l-9.48,9.24-3.42-6.59.8-.49,3,4.32,8.59-7Z"/><path d="M92.43,114l-9.72,8.44c-.94-2.44-2.3-4.29-2.11-6.68l.59-.3,2.11,4.24L92,113.41Z"/><path d="M89.2,92.72l9.19-5.94.42.58L88.69,95.22c-1.19-2-2.31-3.64-2.09-5.79l.49-.24Z"/><path d="M161.34,37.75l-9.59,8.33c-.94-2.46-2.4-4.23-2-6.55l.54-.25,2.08,4.05,8.6-6.16Z"/><path d="M194.22,50.18c-1.57-2.12-3.2-3.79-3.42-6.23l.52-.38,3,4.09,7.87-6.48.44.47Z"/><path d="M180.31,38c-3.1,2.39-6.17,4.8-9.32,7.12a1.89,1.89,0,0,1-1.71,0,41.18,41.18,0,0,1-3.35-2.56l.43-.68a9.62,9.62,0,0,1,2.22,1.06c1.15,1,2,.66,3.11-.11,2.06-1.47,4.18-2.86,6.3-4.22a16.59,16.59,0,0,1,2.12-1Z"/><path d="M175.34,99.92l2.63,2.5L188.15,97l.35.59c-.74.47-1.48.93-2.22,1.41-2.41,1.58-4.84,3.12-7.2,4.77-1.06.74-1.8.69-2.48-.4s-1.26-2-1.89-2.94Z"/><path d="M187.12,73.19l12.43-7.93.39.57c-1.67,1.28-3.33,2.58-5,3.83-2.22,1.64-4.5,3.19-6.7,4.86-1,.76-1.73.79-2.46-.31-.93-1.39-1.92-2.73-2.89-4.09l.67-.6Z"/><path d="M209.88,72.42a33.37,33.37,0,0,1,3.24,1.9,1.85,1.85,0,0,0,2.76-.18c3-2.72,6.12-5.34,9.22-8,.71-.6,1.51-1.09,2.27-1.62l.31.34c-1,1-2.05,2.06-3.1,3.06-2.85,2.72-5.74,5.4-8.55,8.16-.88.86-1.63,1-2.6.26-1.34-1.08-2.7-2.14-4.06-3.2Z"/><path d="M207,107.09c-1.6-2.05-3.33-3.67-3.35-6.16l.5-.34,2.89,4.12,7.85-6.48.09.14Z"/><path d="M239.19,99.54l-9.61,8.35c-1.26-2.35-2.51-4.28-2.17-6.69l.5-.22,2.12,4.25L238.79,99Z"/><path d="M150.11,98.5a7.63,7.63,0,0,1,1.51,1.34c.78,1.19,1.59,1,2.66.41,2.29-1.34,4.62-2.61,7-3.87a16.23,16.23,0,0,1,1.86-.74l.19.39c-2.1,1.46-4.2,2.92-6.32,4.36-.88.59-1.87,1-2.7,1.68-1.32,1-2.34.82-3.2-.56-.53-.85-1-1.72-1.55-2.57Z"/><path d="M137.35,66.75c1,1.36,2,2.69,2.94,4.1.74,1.13,1.4,1.25,2.55.45,3.49-2.4,7.07-4.68,10.63-7a3,3,0,0,1,2-.49c-1.3,1-2.59,1.94-3.89,2.89-2.8,2.05-5.58,4.13-8.43,6.12-1.75,1.22-2.35,1.08-3.69-.62-1.21-1.55-2.5-3.09-2.65-5.16Z"/><path d="M109.27,98.62l10.9-8.26.4.52-4,3.56c-2.16,1.9-4.33,3.8-6.48,5.71-.87.77-1.52.71-2.08-.35-1-1.94-2.06-3.87-3.09-5.8l.84-.53Z"/><path d="M200.11,133c-1.47-2.37-3.28-4-3.34-6.44l.5-.32,3,4.08,7.82-6.39.35.43Z"/><path d="M224.23,135.13l-3.16-6.22.78-.48,3.07,4.39,8.84-7.23-8.62,9.79Z"/><path d="M116.88,66a15.21,15.21,0,0,1,2,1.81c.7.93,1.35.85,2.26.32,2.23-1.32,4.5-2.58,6.77-3.81a21.79,21.79,0,0,1,2.2-.91l.22.4c-2.29,1.56-4.58,3.14-6.88,4.69a9.87,9.87,0,0,1-1.68,1c-.86.36-2.16,1.13-2.58.81A4.77,4.77,0,0,1,116.88,66Z"/><path d="M152.34,125.35l8.62-6.21.44.56-9.71,8.47c-.88-2.5-2.31-4.33-2-6.73l.51-.25Z"/></g></g></svg>